{
  "accessors": [
    {
      "bufferView": 2,
      "componentType": 5126,
      "count": 61,
      "max": [
        48.49382019042969,
        41.4597053527832,
        84.79696655273438
      ],
      "min": [
        -34.2012825012207,
        -41.23540496826172,
        84.79696655273438
      ],
      "type": "VEC3"
    },
    {
      "bufferView": 2,
      "byteOffset": 732,
      "componentType": 5126,
      "count": 61,
      "max": [
        0.0,
        -0.0,
        1.0
      ],
      "min": [
        0.0,
        -0.0,
        1.0
      ],
      "type": "VEC3"
    },
    {
      "bufferView": 3,
      "componentType": 5126,
      "count": 61,
      "max": [
        1.0,
        2.2373902538674884e-05,
        0.0,
        1.0
      ],
      "min": [
        1.0,
        -2.2253652787185274e-05,
        0.0,
        1.0
      ],
      "type": "VEC4"
    },
    {
      "bufferView": 1,
      "componentType": 5126,
      "count": 61,
      "max": [
        0.6091989874839783,
        0.7624080181121826
      ],
      "min": [
        0.3110730051994324,
        0.5210679769515991
      ],
      "type": "VEC2"
    },
    {
      "bufferView": 0,
      "componentType": 5125,
      "count": 288,
      "type": "SCALAR"
    },
    {
      "bufferView": 2,
      "byteOffset": 1464,
      "componentType": 5126,
      "count": 315,
      "max": [
        41.66193771362305,
        34.847354888916016,
        51.514015197753906
      ],
      "min": [
        -27.898983001708984,
        -34.847354888916016,
        44.6003303527832
      ],
      "type": "VEC3"
    },
    {
      "bufferView": 2,
      "byteOffset": 5244,
      "componentType": 5126,
      "count": 315,
      "max": [
        0.998094379901886,
        1.0,
        0.999263346195221
      ],
      "min": [
        -0.998094379901886,
        -1.0,
        -0.999263346195221
      ],
      "type": "VEC3"
    },
    {
      "bufferView": 3,
      "byteOffset": 976,
      "componentType": 5126,
      "count": 315,
      "max": [
        0.9991869926452637,
        0.9991782903671265,
        0.9999170303344727,
        1.0
      ],
      "min": [
        -0.9991880655288696,
        -0.9973335266113281,
        -0.999916672706604,
        1.0
      ],
      "type": "VEC4"
    },
    {
      "bufferView": 1,
      "byteOffset": 488,
      "componentType": 5126,
      "count": 315,
      "max": [
        0.651885986328125,
        0.503974974155426
      ],
      "min": [
        0.5694590210914612,
        0.03094800002872944
      ],
      "type": "VEC2"
    },
    {
      "bufferView": 0,
      "byteOffset": 1152,
      "componentType": 5125,
      "count": 1632,
      "type": "SCALAR"
    },
    {
      "bufferView": 2,
      "byteOffset": 9024,
      "componentType": 5126,
      "count": 269,
      "max": [
        56.84857177734375,
        49.23358917236328,
        86.37263488769531
      ],
      "min": [
        -41.61857223510742,
        -49.23357009887695,
        81.57146453857422
      ],
      "type": "VEC3"
    },
    {
      "bufferView": 2,
      "byteOffset": 12252,
      "componentType": 5126,
      "count": 269,
      "max": [
        1.0,
        1.0,
        0.995975136756897
      ],
      "min": [
        -1.0,
        -1.0,
        -0.9962978959083557
      ],
      "type": "VEC3"
    },
    {
      "bufferView": 3,
      "byteOffset": 6016,
      "componentType": 5126,
      "count": 269,
      "max": [
        1.0,
        1.0,
        0.0725836455821991,
        1.0
      ],
      "min": [
        -1.0,
        -1.0,
        -0.07258378714323044,
        1.0
      ],
      "type": "VEC4"
    },
    {
      "bufferView": 1,
      "byteOffset": 3008,
      "componentType": 5126,
      "count": 269,
      "max": [
        0.7951729893684387,
        0.9823269844055176
      ],
      "min": [
        0.32441800832748413,
        0.7932109832763672
      ],
      "type": "VEC2"
    },
    {
      "bufferView": 0,
      "byteOffset": 7680,
      "componentType": 5125,
      "count": 1080,
      "type": "SCALAR"
    },
    {
      "bufferView": 2,
      "byteOffset": 15480,
      "componentType": 5126,
      "count": 1508,
      "max": [
        59.57539367675781,
        53.27485275268555,
        84.91404724121094
      ],
      "min": [
        -45.25315475463867,
        -52.87361526489258,
        -0.6850320100784302
      ],
      "type": "VEC3"
    },
    {
      "bufferView": 2,
      "byteOffset": 33576,
      "componentType": 5126,
      "count": 1508,
      "max": [
        0.9999966621398926,
        0.9999896287918091,
        1.0
      ],
      "min": [
        -0.999991774559021,
        -0.9999989867210388,
        -1.0
      ],
      "type": "VEC3"
    },
    {
      "bufferView": 3,
      "byteOffset": 10320,
      "componentType": 5126,
      "count": 1508,
      "max": [
        1.0,
        0.9999868869781494,
        0.9876359701156616,
        1.0
      ],
      "min": [
        -0.9999818205833435,
        -0.9999818205833435,
        -0.9876357913017273,
        1.0
      ],
      "type": "VEC4"
    },
    {
      "bufferView": 1,
      "byteOffset": 5160,
      "componentType": 5126,
      "count": 1508,
      "max": [
        0.961991012096405,
        0.8786560297012329
      ],
      "min": [
        0.011796999722719193,
        0.013004000298678875
      ],
      "type": "VEC2"
    },
    {
      "bufferView": 0,
      "byteOffset": 12000,
      "componentType": 5125,
      "count": 6528,
      "type": "SCALAR"
    }
  ],
  "asset": {
    "extras": {
      "author": "Brookly (https://sketchfab.com/Brookly)",
      "license": "CC-BY-4.0 (http://creativecommons.org/licenses/by/4.0/)",
      "source": "https://sketchfab.com/3d-models/me-table-1aa8eeede33c4d96af4b3167a2476ca9",
      "title": "Me Table"
    },
    "generator": "Sketchfab-15.37.0",
    "version": "2.0"
  },
  "bufferViews": [
    {
      "buffer": 0,
      "byteLength": 38112,
      "name": "floatBufferViews",
      "target": 34963
    },
    {
      "buffer": 0,
      "byteLength": 17224,
      "byteOffset": 38112,
      "byteStride": 8,
      "name": "floatBufferViews",
      "target": 34962
    },
    {
      "buffer": 0,
      "byteLength": 51672,
      "byteOffset": 55336,
      "byteStride": 12,
      "name": "floatBufferViews",
      "target": 34962
    },
    {
      "buffer": 0,
      "byteLength": 34448,
      "byteOffset": 107008,
      "byteStride": 16,
      "name": "floatBufferViews",
      "target": 34962
    }
  ],
  "buffers": [
    {
      "byteLength": 141456,
      "uri": "scene.bin"
    }
  ],
  "images": [
    {
      "uri": "textures/blinn5SG_baseColor.png"
    },
    {
      "uri": "textures/blinn5SG_metallicRoughness.png"
    },
    {
      "uri": "textures/blinn5SG_normal.png"
    },
    {
      "uri": "textures/blinn6SG_baseColor.png"
    },
    {
      "uri": "textures/blinn6SG_metallicRoughness.png"
    },
    {
      "uri": "textures/blinn6SG_normal.png"
    },
    {
      "uri": "textures/blinn7SG_baseColor.png"
    },
    {
      "uri": "textures/blinn7SG_metallicRoughness.png"
    },
    {
      "uri": "textures/blinn7SG_normal.png"
    },
    {
      "uri": "textures/blinn8SG_baseColor.png"
    },
    {
      "uri": "textures/blinn8SG_metallicRoughness.png"
    },
    {
      "uri": "textures/blinn8SG_normal.png"
    }
  ],
  "materials": [
    {
      "doubleSided": true,
      "name": "blinn5SG",
      "normalTexture": {
        "index": 2
      },
      "pbrMetallicRoughness": {
        "baseColorTexture": {
          "index": 0
        },
        "metallicRoughnessTexture": {
          "index": 1
        }
      }
    },
    {
      "doubleSided": true,
      "name": "blinn6SG",
      "normalTexture": {
        "index": 5
      },
      "pbrMetallicRoughness": {
        "baseColorTexture": {
          "index": 3
        },
        "metallicRoughnessTexture": {
          "index": 4
        }
      }
    },
    {
      "doubleSided": true,
      "name": "blinn7SG",
      "normalTexture": {
        "index": 8
      },
      "pbrMetallicRoughness": {
        "baseColorTexture": {
          "index": 6
        },
        "metallicRoughnessTexture": {
          "index": 7
        }
      }
    },
    {
      "doubleSided": true,
      "name": "blinn8SG",
      "normalTexture": {
        "index": 11
      },
      "pbrMetallicRoughness": {
        "baseColorTexture": {
          "index": 9
        },
        "metallicRoughnessTexture": {
          "index": 10
        }
      }
    }
  ],
  "meshes": [
    {
      "name": "Object_0",
      "primitives": [
        {
          "attributes": {
            "NORMAL": 1,
            "POSITION": 0,
            "TANGENT": 2,
            "TEXCOORD_0": 3
          },
          "indices": 4,
          "material": 3,
          "mode": 4
        }
      ]
    },
    {
      "name": "Object_1",
      "primitives": [
        {
          "attributes": {
            "NORMAL": 6,
            "POSITION": 5,
            "TANGENT": 7,
            "TEXCOORD_0": 8
          },
          "indices": 9,
          "material": 1,
          "mode": 4
        }
      ]
    },
    {
      "name": "Object_2",
      "primitives": [
        {
          "attributes": {
            "NORMAL": 11,
            "POSITION": 10,
            "TANGENT": 12,
            "TEXCOORD_0": 13
          },
          "indices": 14,
          "material": 2,
          "mode": 4
        }
      ]
    },
    {
      "name": "Object_3",
      "primitives": [
        {
          "attributes": {
            "NORMAL": 16,
            "POSITION": 15,
            "TANGENT": 17,
            "TEXCOORD_0": 18
          },
          "indices": 19,
          "material": 0,
          "mode": 4
        }
      ]
    }
  ],
  "nodes": [
    {
      "children": [
        1
      ],
      "matrix": [
        1.0,
        0.0,
        0.0,
        0.0,
        0.0,
        2.220446049250313e-16,
        -1.0,
        0.0,
        0.0,
        1.0,
        2.220446049250313e-16,
        0.0,
        0.0,
        0.0,
        0.0,
        1.0
      ],
      "name": "Sketchfab_model"
    },
    {
      "children": [
        2,
        3,
        4,
        5
      ],
      "name": "Me Table.obj.cleaner.materialmerger.gles"
    },
    {
      "mesh": 0,
      "name": "Object_2"
    },
    {
      "mesh": 1,
      "name": "Object_3"
    },
    {
      "mesh": 2,
      "name": "Object_4"
    },
    {
      "mesh": 3,
      "name": "Object_5"
    }
  ],
  "samplers": [
    {
      "magFilter": 9729,
      "minFilter": 9987,
      "wrapS": 10497,
      "wrapT": 10497
    }
  ],
  "scene": 0,
  "scenes": [
    {
      "name": "Sketchfab_Scene",
      "nodes": [
        0
      ]
    }
  ],
  "textures": [
    {
      "sampler": 0,
      "source": 0
    },
    {
      "sampler": 0,
      "source": 1
    },
    {
      "sampler": 0,
      "source": 2
    },
    {
      "sampler": 0,
      "source": 3
    },
    {
      "sampler": 0,
      "source": 4
    },
    {
      "sampler": 0,
      "source": 5
    },
    {
      "sampler": 0,
      "source": 6
    },
    {
      "sampler": 0,
      "source": 7
    },
    {
      "sampler": 0,
      "source": 8
    },
    {
      "sampler": 0,
      "source": 9
    },
    {
      "sampler": 0,
      "source": 10
    },
    {
      "sampler": 0,
      "source": 11
    }
  ]
}
