{
  "accessors": [
    {
      "bufferView": 1,
      "componentType": 5126,
      "count": 4736,
      "max": [
        0.4419800043106079,
        0.6939200162887573,
        1.1774100065231323
      ],
      "min": [
        -0.4419800043106079,
        -0.6566100120544434,
        -0.001019999966956675
      ],
      "type": "VEC3"
    },
    {
      "bufferView": 1,
      "byteOffset": 56832,
      "componentType": 5126,
      "count": 4736,
      "max": [
        0.9999858736991882,
        0.9998700022697449,
        1.0
      ],
      "min": [
        -0.9999988675117493,
        -0.9999487996101379,
        -1.0
      ],
      "type": "VEC3"
    },
    {
      "bufferView": 0,
      "componentType": 5125,
      "count": 26256,
      "type": "SCALAR"
    },
    {
      "bufferView": 1,
      "byteOffset": 113664,
      "componentType": 5126,
      "count": 2070,
      "max": [
        0.48249000310897827,
        0.49417001008987427,
        0.6087300181388855
      ],
      "min": [
        -0.48249000310897827,
        -0.7167500257492065,
        0.13866999745368958
      ],
      "type": "VEC3"
    },
    {
      "bufferView": 1,
      "byteOffset": 138504,
      "componentType": 5126,
      "count": 2070,
      "max": [
        0.9996522665023804,
        0.9997110962867737,
        0.997696042060852
      ],
      "min": [
        -0.9996538162231445,
        -0.9994992017745972,
        -0.9945792555809021
      ],
      "type": "VEC3"
    },
    {
      "bufferView": 0,
      "byteOffset": 105024,
      "componentType": 5125,
      "count": 11808,
      "type": "SCALAR"
    },
    {
      "bufferView": 1,
      "byteOffset": 163344,
      "componentType": 5126,
      "count": 1828,
      "max": [
        0.290149986743927,
        0.6996899843215942,
        1.1830699443817139
      ],
      "min": [
        -0.290149986743927,
        -0.6550099849700928,
        0.0010100000072270632
      ],
      "type": "VEC3"
    },
    {
      "bufferView": 1,
      "byteOffset": 185280,
      "componentType": 5126,
      "count": 1828,
      "max": [
        0.9996768236160278,
        0.9985211491584778,
        0.9999982714653015
      ],
      "min": [
        -0.9998199939727783,
        -0.999649167060852,
        -0.9991763234138489
      ],
      "type": "VEC3"
    },
    {
      "bufferView": 0,
      "byteOffset": 152256,
      "componentType": 5125,
      "count": 9600,
      "type": "SCALAR"
    },
    {
      "bufferView": 1,
      "byteOffset": 207216,
      "componentType": 5126,
      "count": 1044,
      "max": [
        0.25606998801231384,
        0.25999000668525696,
        0.001339999958872795
      ],
      "min": [
        -0.25606998801231384,
        -0.26401999592781067,
        -0.06942000240087509
      ],
      "type": "VEC3"
    },
    {
      "bufferView": 1,
      "byteOffset": 219744,
      "componentType": 5126,
      "count": 1044,
      "max": [
        0.996696412563324,
        0.9994971752166748,
        0.9976561069488525
      ],
      "min": [
        -0.996696412563324,
        -0.9980599880218506,
        -0.9991037249565125
      ],
      "type": "VEC3"
    },
    {
      "bufferView": 0,
      "byteOffset": 190656,
      "componentType": 5125,
      "count": 6048,
      "type": "SCALAR"
    },
    {
      "bufferView": 1,
      "byteOffset": 232272,
      "componentType": 5126,
      "count": 2414,
      "max": [
        0.06978999823331833,
        0.07490000128746033,
        0.1688999980688095
      ],
      "min": [
        -0.06978999823331833,
        -0.06800000369548798,
        0.01834000088274479
      ],
      "type": "VEC3"
    },
    {
      "bufferView": 1,
      "byteOffset": 261240,
      "componentType": 5126,
      "count": 2414,
      "max": [
        0.999131441116333,
        1.0,
        0.9999206066131592
      ],
      "min": [
        -0.999131441116333,
        -1.0,
        -0.9999725222587585
      ],
      "type": "VEC3"
    },
    {
      "bufferView": 0,
      "byteOffset": 214848,
      "componentType": 5125,
      "count": 14256,
      "type": "SCALAR"
    },
    {
      "bufferView": 1,
      "byteOffset": 290208,
      "componentType": 5126,
      "count": 936,
      "max": [
        0.22109000384807587,
        0.22384999692440033,
        0.0480399988591671
      ],
      "min": [
        -0.22109000384807587,
        -0.2288299947977066,
        -0.025800000876188278
      ],
      "type": "VEC3"
    },
    {
      "bufferView": 1,
      "byteOffset": 301440,
      "componentType": 5126,
      "count": 936,
      "max": [
        0.42433202266693115,
        0.4188190996646881,
        0.9803550243377686
      ],
      "min": [
        -0.42433202266693115,
        -0.4140184223651886,
        -0.9838555455207825
      ],
      "type": "VEC3"
    },
    {
      "bufferView": 0,
      "byteOffset": 271872,
      "componentType": 5125,
      "count": 5184,
      "type": "SCALAR"
    },
    {
      "bufferView": 1,
      "byteOffset": 312672,
      "componentType": 5126,
      "count": 3728,
      "max": [
        0.24232999980449677,
        0.3561500012874603,
        0.3063899874687195
      ],
      "min": [
        -0.24232999980449677,
        -0.24223999679088593,
        -0.09003999829292297
      ],
      "type": "VEC3"
    },
    {
      "bufferView": 1,
      "byteOffset": 357408,
      "componentType": 5126,
      "count": 3728,
      "max": [
        0.9997426271438599,
        0.9998008608818054,
        1.0
      ],
      "min": [
        -0.999716579914093,
        -0.9999579787254333,
        -1.0
      ],
      "type": "VEC3"
    },
    {
      "bufferView": 0,
      "byteOffset": 292608,
      "componentType": 5125,
      "count": 21696,
      "type": "SCALAR"
    },
    {
      "bufferView": 1,
      "byteOffset": 402144,
      "componentType": 5126,
      "count": 686,
      "max": [
        0.22390000522136688,
        0.2241699993610382,
        0.20736999809741974
      ],
      "min": [
        -0.22390000522136688,
        -0.22380000352859497,
        0.03474999964237213
      ],
      "type": "VEC3"
    },
    {
      "bufferView": 1,
      "byteOffset": 410376,
      "componentType": 5126,
      "count": 686,
      "max": [
        0.9493492841720581,
        0.9886206984519958,
        0.8438825607299805
      ],
      "min": [
        -0.9493492841720581,
        -0.9957882761955261,
        -0.8074897527694702
      ],
      "type": "VEC3"
    },
    {
      "bufferView": 0,
      "byteOffset": 379392,
      "componentType": 5125,
      "count": 3648,
      "type": "SCALAR"
    },
    {
      "bufferView": 1,
      "byteOffset": 418608,
      "componentType": 5126,
      "count": 416,
      "max": [
        0.24467000365257263,
        0.24714000523090363,
        0.3020299971103668
      ],
      "min": [
        -0.24467000365257263,
        -0.2445800006389618,
        0.270579993724823
      ],
      "type": "VEC3"
    },
    {
      "bufferView": 1,
      "byteOffset": 423600,
      "componentType": 5126,
      "count": 416,
      "max": [
        0.9998356103897095,
        0.9886155724525452,
        0.999810516834259
      ],
      "min": [
        -0.9998356103897095,
        -0.9998356103897095,
        -0.22657550871372223
      ],
      "type": "VEC3"
    },
    {
      "bufferView": 0,
      "byteOffset": 393984,
      "componentType": 5125,
      "count": 2304,
      "type": "SCALAR"
    },
    {
      "bufferView": 1,
      "byteOffset": 428592,
      "componentType": 5126,
      "count": 1668,
      "max": [
        0.574999988079071,
        0.5724899768829346,
        0.10610000044107437
      ],
      "min": [
        -0.5750200152397156,
        -0.577530026435852,
        -0.016510000452399254
      ],
      "type": "VEC3"
    },
    {
      "bufferView": 1,
      "byteOffset": 448608,
      "componentType": 5126,
      "count": 1668,
      "max": [
        1.0,
        1.0,
        1.0
      ],
      "min": [
        -1.0,
        -1.0,
        -1.0
      ],
      "type": "VEC3"
    },
    {
      "bufferView": 0,
      "byteOffset": 403200,
      "componentType": 5125,
      "count": 9984,
      "type": "SCALAR"
    },
    {
      "bufferView": 1,
      "byteOffset": 468624,
      "componentType": 5126,
      "count": 416,
      "max": [
        0.6681900024414063,
        0.6756100058555603,
        0.14948000013828278
      ],
      "min": [
        -0.6682900190353394,
        -0.6614199876785278,
        0.06921999901533127
      ],
      "type": "VEC3"
    },
    {
      "bufferView": 1,
      "byteOffset": 473616,
      "componentType": 5126,
      "count": 416,
      "max": [
        0.9638609290122986,
        0.9420634508132935,
        0.9867817759513855
      ],
      "min": [
        -0.9637004733085632,
        -0.9820653796195984,
        -0.9102352857589722
      ],
      "type": "VEC3"
    },
    {
      "bufferView": 0,
      "byteOffset": 443136,
      "componentType": 5125,
      "count": 2304,
      "type": "SCALAR"
    },
    {
      "bufferView": 1,
      "byteOffset": 478608,
      "componentType": 5126,
      "count": 3518,
      "max": [
        1.2056200504302979,
        1.8517299890518188,
        0.34358999133110046
      ],
      "min": [
        -1.2056200504302979,
        -1.8517299890518188,
        -0.2439900040626526
      ],
      "type": "VEC3"
    },
    {
      "bufferView": 1,
      "byteOffset": 520824,
      "componentType": 5126,
      "count": 3518,
      "max": [
        0.9995454549789429,
        1.0,
        1.0
      ],
      "min": [
        -0.9995454549789429,
        -1.0,
        -1.0
      ],
      "type": "VEC3"
    },
    {
      "bufferView": 0,
      "byteOffset": 452352,
      "componentType": 5125,
      "count": 21120,
      "type": "SCALAR"
    },
    {
      "bufferView": 1,
      "byteOffset": 563040,
      "componentType": 5126,
      "count": 3728,
      "max": [
        0.24232999980449677,
        0.3561500012874603,
        0.3063899874687195
      ],
      "min": [
        -0.24232999980449677,
        -0.24223999679088593,
        -0.09003999829292297
      ],
      "type": "VEC3"
    },
    {
      "bufferView": 1,
      "byteOffset": 607776,
      "componentType": 5126,
      "count": 3728,
      "max": [
        0.9997426271438599,
        0.9998008608818054,
        1.0
      ],
      "min": [
        -0.999716579914093,
        -0.9999579787254333,
        -1.0
      ],
      "type": "VEC3"
    },
    {
      "bufferView": 0,
      "byteOffset": 536832,
      "componentType": 5125,
      "count": 21696,
      "type": "SCALAR"
    },
    {
      "bufferView": 1,
      "byteOffset": 652512,
      "componentType": 5126,
      "count": 686,
      "max": [
        0.22390000522136688,
        0.2241699993610382,
        0.20736999809741974
      ],
      "min": [
        -0.22390000522136688,
        -0.22380000352859497,
        0.03474999964237213
      ],
      "type": "VEC3"
    },
    {
      "bufferView": 1,
      "byteOffset": 660744,
      "componentType": 5126,
      "count": 686,
      "max": [
        0.9493492841720581,
        0.9886206984519958,
        0.8438825607299805
      ],
      "min": [
        -0.9493492841720581,
        -0.9957882761955261,
        -0.8074897527694702
      ],
      "type": "VEC3"
    },
    {
      "bufferView": 0,
      "byteOffset": 623616,
      "componentType": 5125,
      "count": 3648,
      "type": "SCALAR"
    },
    {
      "bufferView": 1,
      "byteOffset": 668976,
      "componentType": 5126,
      "count": 416,
      "max": [
        0.24467000365257263,
        0.24714000523090363,
        0.3020299971103668
      ],
      "min": [
        -0.24467000365257263,
        -0.2445800006389618,
        0.270579993724823
      ],
      "type": "VEC3"
    },
    {
      "bufferView": 1,
      "byteOffset": 673968,
      "componentType": 5126,
      "count": 416,
      "max": [
        0.9998356103897095,
        0.9886155724525452,
        0.999810516834259
      ],
      "min": [
        -0.9998356103897095,
        -0.9998356103897095,
        -0.22657550871372223
      ],
      "type": "VEC3"
    },
    {
      "bufferView": 0,
      "byteOffset": 638208,
      "componentType": 5125,
      "count": 2304,
      "type": "SCALAR"
    },
    {
      "bufferView": 1,
      "byteOffset": 678960,
      "componentType": 5126,
      "count": 1668,
      "max": [
        0.574999988079071,
        0.5724899768829346,
        0.10610000044107437
      ],
      "min": [
        -0.5750200152397156,
        -0.577530026435852,
        -0.016510000452399254
      ],
      "type": "VEC3"
    },
    {
      "bufferView": 1,
      "byteOffset": 698976,
      "componentType": 5126,
      "count": 1668,
      "max": [
        1.0,
        1.0,
        1.0
      ],
      "min": [
        -1.0,
        -1.0,
        -1.0
      ],
      "type": "VEC3"
    },
    {
      "bufferView": 0,
      "byteOffset": 647424,
      "componentType": 5125,
      "count": 9984,
      "type": "SCALAR"
    },
    {
      "bufferView": 1,
      "byteOffset": 718992,
      "componentType": 5126,
      "count": 416,
      "max": [
        0.6681900024414063,
        0.6756100058555603,
        0.14948000013828278
      ],
      "min": [
        -0.6682900190353394,
        -0.6614199876785278,
        0.06921999901533127
      ],
      "type": "VEC3"
    },
    {
      "bufferView": 1,
      "byteOffset": 723984,
      "componentType": 5126,
      "count": 416,
      "max": [
        0.9638609290122986,
        0.9420634508132935,
        0.9867817759513855
      ],
      "min": [
        -0.9637004733085632,
        -0.9820653796195984,
        -0.9102352857589722
      ],
      "type": "VEC3"
    },
    {
      "bufferView": 0,
      "byteOffset": 687360,
      "componentType": 5125,
      "count": 2304,
      "type": "SCALAR"
    },
    {
      "bufferView": 1,
      "byteOffset": 728976,
      "componentType": 5126,
      "count": 3728,
      "max": [
        0.24232999980449677,
        0.3561500012874603,
        0.3063899874687195
      ],
      "min": [
        -0.24232999980449677,
        -0.24223999679088593,
        -0.09003999829292297
      ],
      "type": "VEC3"
    },
    {
      "bufferView": 1,
      "byteOffset": 773712,
      "componentType": 5126,
      "count": 3728,
      "max": [
        0.9997426271438599,
        0.9998008608818054,
        1.0
      ],
      "min": [
        -0.999716579914093,
        -0.9999579787254333,
        -1.0
      ],
      "type": "VEC3"
    },
    {
      "bufferView": 0,
      "byteOffset": 696576,
      "componentType": 5125,
      "count": 21696,
      "type": "SCALAR"
    },
    {
      "bufferView": 1,
      "byteOffset": 818448,
      "componentType": 5126,
      "count": 686,
      "max": [
        0.22390000522136688,
        0.2241699993610382,
        0.20736999809741974
      ],
      "min": [
        -0.22390000522136688,
        -0.22380000352859497,
        0.03474999964237213
      ],
      "type": "VEC3"
    },
    {
      "bufferView": 1,
      "byteOffset": 826680,
      "componentType": 5126,
      "count": 686,
      "max": [
        0.9493492841720581,
        0.9886206984519958,
        0.8438825607299805
      ],
      "min": [
        -0.9493492841720581,
        -0.9957882761955261,
        -0.8074897527694702
      ],
      "type": "VEC3"
    },
    {
      "bufferView": 0,
      "byteOffset": 783360,
      "componentType": 5125,
      "count": 3648,
      "type": "SCALAR"
    },
    {
      "bufferView": 1,
      "byteOffset": 834912,
      "componentType": 5126,
      "count": 416,
      "max": [
        0.24467000365257263,
        0.24714000523090363,
        0.3020299971103668
      ],
      "min": [
        -0.24467000365257263,
        -0.2445800006389618,
        0.270579993724823
      ],
      "type": "VEC3"
    },
    {
      "bufferView": 1,
      "byteOffset": 839904,
      "componentType": 5126,
      "count": 416,
      "max": [
        0.9998356103897095,
        0.9886155724525452,
        0.999810516834259
      ],
      "min": [
        -0.9998356103897095,
        -0.9998356103897095,
        -0.22657550871372223
      ],
      "type": "VEC3"
    },
    {
      "bufferView": 0,
      "byteOffset": 797952,
      "componentType": 5125,
      "count": 2304,
      "type": "SCALAR"
    },
    {
      "bufferView": 1,
      "byteOffset": 844896,
      "componentType": 5126,
      "count": 1668,
      "max": [
        0.574999988079071,
        0.5724899768829346,
        0.10610000044107437
      ],
      "min": [
        -0.5750200152397156,
        -0.577530026435852,
        -0.016510000452399254
      ],
      "type": "VEC3"
    },
    {
      "bufferView": 1,
      "byteOffset": 864912,
      "componentType": 5126,
      "count": 1668,
      "max": [
        1.0,
        1.0,
        1.0
      ],
      "min": [
        -1.0,
        -1.0,
        -1.0
      ],
      "type": "VEC3"
    },
    {
      "bufferView": 0,
      "byteOffset": 807168,
      "componentType": 5125,
      "count": 9984,
      "type": "SCALAR"
    },
    {
      "bufferView": 1,
      "byteOffset": 884928,
      "componentType": 5126,
      "count": 416,
      "max": [
        0.6681900024414063,
        0.6756100058555603,
        0.14948000013828278
      ],
      "min": [
        -0.6682900190353394,
        -0.6614199876785278,
        0.06921999901533127
      ],
      "type": "VEC3"
    },
    {
      "bufferView": 1,
      "byteOffset": 889920,
      "componentType": 5126,
      "count": 416,
      "max": [
        0.9638609290122986,
        0.9420634508132935,
        0.9867817759513855
      ],
      "min": [
        -0.9637004733085632,
        -0.9820653796195984,
        -0.9102352857589722
      ],
      "type": "VEC3"
    },
    {
      "bufferView": 0,
      "byteOffset": 847104,
      "componentType": 5125,
      "count": 2304,
      "type": "SCALAR"
    },
    {
      "bufferView": 1,
      "byteOffset": 894912,
      "componentType": 5126,
      "count": 3728,
      "max": [
        0.24232999980449677,
        0.3561500012874603,
        0.3063899874687195
      ],
      "min": [
        -0.24232999980449677,
        -0.24223999679088593,
        -0.09003999829292297
      ],
      "type": "VEC3"
    },
    {
      "bufferView": 1,
      "byteOffset": 939648,
      "componentType": 5126,
      "count": 3728,
      "max": [
        0.9997426271438599,
        0.9998008608818054,
        1.0
      ],
      "min": [
        -0.999716579914093,
        -0.9999579787254333,
        -1.0
      ],
      "type": "VEC3"
    },
    {
      "bufferView": 0,
      "byteOffset": 856320,
      "componentType": 5125,
      "count": 21696,
      "type": "SCALAR"
    },
    {
      "bufferView": 1,
      "byteOffset": 984384,
      "componentType": 5126,
      "count": 686,
      "max": [
        0.22390000522136688,
        0.2241699993610382,
        0.20736999809741974
      ],
      "min": [
        -0.22390000522136688,
        -0.22380000352859497,
        0.03474999964237213
      ],
      "type": "VEC3"
    },
    {
      "bufferView": 1,
      "byteOffset": 992616,
      "componentType": 5126,
      "count": 686,
      "max": [
        0.9493492841720581,
        0.9886206984519958,
        0.8438825607299805
      ],
      "min": [
        -0.9493492841720581,
        -0.9957882761955261,
        -0.8074897527694702
      ],
      "type": "VEC3"
    },
    {
      "bufferView": 0,
      "byteOffset": 943104,
      "componentType": 5125,
      "count": 3648,
      "type": "SCALAR"
    },
    {
      "bufferView": 1,
      "byteOffset": 1000848,
      "componentType": 5126,
      "count": 416,
      "max": [
        0.24467000365257263,
        0.24714000523090363,
        0.3020299971103668
      ],
      "min": [
        -0.24467000365257263,
        -0.2445800006389618,
        0.270579993724823
      ],
      "type": "VEC3"
    },
    {
      "bufferView": 1,
      "byteOffset": 1005840,
      "componentType": 5126,
      "count": 416,
      "max": [
        0.9998356103897095,
        0.9886155724525452,
        0.999810516834259
      ],
      "min": [
        -0.9998356103897095,
        -0.9998356103897095,
        -0.22657550871372223
      ],
      "type": "VEC3"
    },
    {
      "bufferView": 0,
      "byteOffset": 957696,
      "componentType": 5125,
      "count": 2304,
      "type": "SCALAR"
    },
    {
      "bufferView": 1,
      "byteOffset": 1010832,
      "componentType": 5126,
      "count": 1668,
      "max": [
        0.574999988079071,
        0.5724899768829346,
        0.10610000044107437
      ],
      "min": [
        -0.5750200152397156,
        -0.577530026435852,
        -0.016510000452399254
      ],
      "type": "VEC3"
    },
    {
      "bufferView": 1,
      "byteOffset": 1030848,
      "componentType": 5126,
      "count": 1668,
      "max": [
        1.0,
        1.0,
        1.0
      ],
      "min": [
        -1.0,
        -1.0,
        -1.0
      ],
      "type": "VEC3"
    },
    {
      "bufferView": 0,
      "byteOffset": 966912,
      "componentType": 5125,
      "count": 9984,
      "type": "SCALAR"
    },
    {
      "bufferView": 1,
      "byteOffset": 1050864,
      "componentType": 5126,
      "count": 416,
      "max": [
        0.6681900024414063,
        0.6756100058555603,
        0.14948000013828278
      ],
      "min": [
        -0.6682900190353394,
        -0.6614199876785278,
        0.06921999901533127
      ],
      "type": "VEC3"
    },
    {
      "bufferView": 1,
      "byteOffset": 1055856,
      "componentType": 5126,
      "count": 416,
      "max": [
        0.9638609290122986,
        0.9420634508132935,
        0.9867817759513855
      ],
      "min": [
        -0.9637004733085632,
        -0.9820653796195984,
        -0.9102352857589722
      ],
      "type": "VEC3"
    },
    {
      "bufferView": 0,
      "byteOffset": 1006848,
      "componentType": 5125,
      "count": 2304,
      "type": "SCALAR"
    },
    {
      "bufferView": 1,
      "byteOffset": 1060848,
      "componentType": 5126,
      "count": 3728,
      "max": [
        0.24232999980449677,
        0.3561500012874603,
        0.3063899874687195
      ],
      "min": [
        -0.24232999980449677,
        -0.24223999679088593,
        -0.09003999829292297
      ],
      "type": "VEC3"
    },
    {
      "bufferView": 1,
      "byteOffset": 1105584,
      "componentType": 5126,
      "count": 3728,
      "max": [
        0.9997426271438599,
        0.9998008608818054,
        1.0
      ],
      "min": [
        -0.999716579914093,
        -0.9999579787254333,
        -1.0
      ],
      "type": "VEC3"
    },
    {
      "bufferView": 0,
      "byteOffset": 1016064,
      "componentType": 5125,
      "count": 21696,
      "type": "SCALAR"
    },
    {
      "bufferView": 1,
      "byteOffset": 1150320,
      "componentType": 5126,
      "count": 686,
      "max": [
        0.22390000522136688,
        0.2241699993610382,
        0.20736999809741974
      ],
      "min": [
        -0.22390000522136688,
        -0.22380000352859497,
        0.03474999964237213
      ],
      "type": "VEC3"
    },
    {
      "bufferView": 1,
      "byteOffset": 1158552,
      "componentType": 5126,
      "count": 686,
      "max": [
        0.9493492841720581,
        0.9886206984519958,
        0.8438825607299805
      ],
      "min": [
        -0.9493492841720581,
        -0.9957882761955261,
        -0.8074897527694702
      ],
      "type": "VEC3"
    },
    {
      "bufferView": 0,
      "byteOffset": 1102848,
      "componentType": 5125,
      "count": 3648,
      "type": "SCALAR"
    },
    {
      "bufferView": 1,
      "byteOffset": 1166784,
      "componentType": 5126,
      "count": 416,
      "max": [
        0.24467000365257263,
        0.24714000523090363,
        0.3020299971103668
      ],
      "min": [
        -0.24467000365257263,
        -0.2445800006389618,
        0.270579993724823
      ],
      "type": "VEC3"
    },
    {
      "bufferView": 1,
      "byteOffset": 1171776,
      "componentType": 5126,
      "count": 416,
      "max": [
        0.9998356103897095,
        0.9886155724525452,
        0.999810516834259
      ],
      "min": [
        -0.9998356103897095,
        -0.9998356103897095,
        -0.22657550871372223
      ],
      "type": "VEC3"
    },
    {
      "bufferView": 0,
      "byteOffset": 1117440,
      "componentType": 5125,
      "count": 2304,
      "type": "SCALAR"
    },
    {
      "bufferView": 1,
      "byteOffset": 1176768,
      "componentType": 5126,
      "count": 1668,
      "max": [
        0.574999988079071,
        0.5724899768829346,
        0.10610000044107437
      ],
      "min": [
        -0.5750200152397156,
        -0.577530026435852,
        -0.016510000452399254
      ],
      "type": "VEC3"
    },
    {
      "bufferView": 1,
      "byteOffset": 1196784,
      "componentType": 5126,
      "count": 1668,
      "max": [
        1.0,
        1.0,
        1.0
      ],
      "min": [
        -1.0,
        -1.0,
        -1.0
      ],
      "type": "VEC3"
    },
    {
      "bufferView": 0,
      "byteOffset": 1126656,
      "componentType": 5125,
      "count": 9984,
      "type": "SCALAR"
    },
    {
      "bufferView": 1,
      "byteOffset": 1216800,
      "componentType": 5126,
      "count": 416,
      "max": [
        0.6681900024414063,
        0.6756100058555603,
        0.14948000013828278
      ],
      "min": [
        -0.6682900190353394,
        -0.6614199876785278,
        0.06921999901533127
      ],
      "type": "VEC3"
    },
    {
      "bufferView": 1,
      "byteOffset": 1221792,
      "componentType": 5126,
      "count": 416,
      "max": [
        0.9638609290122986,
        0.9420634508132935,
        0.9867817759513855
      ],
      "min": [
        -0.9637004733085632,
        -0.9820653796195984,
        -0.9102352857589722
      ],
      "type": "VEC3"
    },
    {
      "bufferView": 0,
      "byteOffset": 1166592,
      "componentType": 5125,
      "count": 2304,
      "type": "SCALAR"
    },
    {
      "bufferView": 1,
      "byteOffset": 1226784,
      "componentType": 5126,
      "count": 3728,
      "max": [
        0.24232999980449677,
        0.3561500012874603,
        0.3063899874687195
      ],
      "min": [
        -0.24232999980449677,
        -0.24223999679088593,
        -0.09003999829292297
      ],
      "type": "VEC3"
    },
    {
      "bufferView": 1,
      "byteOffset": 1271520,
      "componentType": 5126,
      "count": 3728,
      "max": [
        0.9997426271438599,
        0.9998008608818054,
        1.0
      ],
      "min": [
        -0.999716579914093,
        -0.9999579787254333,
        -1.0
      ],
      "type": "VEC3"
    },
    {
      "bufferView": 0,
      "byteOffset": 1175808,
      "componentType": 5125,
      "count": 21696,
      "type": "SCALAR"
    },
    {
      "bufferView": 1,
      "byteOffset": 1316256,
      "componentType": 5126,
      "count": 686,
      "max": [
        0.22390000522136688,
        0.2241699993610382,
        0.20736999809741974
      ],
      "min": [
        -0.22390000522136688,
        -0.22380000352859497,
        0.03474999964237213
      ],
      "type": "VEC3"
    },
    {
      "bufferView": 1,
      "byteOffset": 1324488,
      "componentType": 5126,
      "count": 686,
      "max": [
        0.9493492841720581,
        0.9886206984519958,
        0.8438825607299805
      ],
      "min": [
        -0.9493492841720581,
        -0.9957882761955261,
        -0.8074897527694702
      ],
      "type": "VEC3"
    },
    {
      "bufferView": 0,
      "byteOffset": 1262592,
      "componentType": 5125,
      "count": 3648,
      "type": "SCALAR"
    },
    {
      "bufferView": 1,
      "byteOffset": 1332720,
      "componentType": 5126,
      "count": 416,
      "max": [
        0.24467000365257263,
        0.24714000523090363,
        0.3020299971103668
      ],
      "min": [
        -0.24467000365257263,
        -0.2445800006389618,
        0.270579993724823
      ],
      "type": "VEC3"
    },
    {
      "bufferView": 1,
      "byteOffset": 1337712,
      "componentType": 5126,
      "count": 416,
      "max": [
        0.9998356103897095,
        0.9886155724525452,
        0.999810516834259
      ],
      "min": [
        -0.9998356103897095,
        -0.9998356103897095,
        -0.22657550871372223
      ],
      "type": "VEC3"
    },
    {
      "bufferView": 0,
      "byteOffset": 1277184,
      "componentType": 5125,
      "count": 2304,
      "type": "SCALAR"
    },
    {
      "bufferView": 1,
      "byteOffset": 1342704,
      "componentType": 5126,
      "count": 1668,
      "max": [
        0.574999988079071,
        0.5724899768829346,
        0.10610000044107437
      ],
      "min": [
        -0.5750200152397156,
        -0.577530026435852,
        -0.016510000452399254
      ],
      "type": "VEC3"
    },
    {
      "bufferView": 1,
      "byteOffset": 1362720,
      "componentType": 5126,
      "count": 1668,
      "max": [
        1.0,
        1.0,
        1.0
      ],
      "min": [
        -1.0,
        -1.0,
        -1.0
      ],
      "type": "VEC3"
    },
    {
      "bufferView": 0,
      "byteOffset": 1286400,
      "componentType": 5125,
      "count": 9984,
      "type": "SCALAR"
    },
    {
      "bufferView": 1,
      "byteOffset": 1382736,
      "componentType": 5126,
      "count": 416,
      "max": [
        0.6681900024414063,
        0.6756100058555603,
        0.14948000013828278
      ],
      "min": [
        -0.6682900190353394,
        -0.6614199876785278,
        0.06921999901533127
      ],
      "type": "VEC3"
    },
    {
      "bufferView": 1,
      "byteOffset": 1387728,
      "componentType": 5126,
      "count": 416,
      "max": [
        0.9638609290122986,
        0.9420634508132935,
        0.9867817759513855
      ],
      "min": [
        -0.9637004733085632,
        -0.9820653796195984,
        -0.9102352857589722
      ],
      "type": "VEC3"
    },
    {
      "bufferView": 0,
      "byteOffset": 1326336,
      "componentType": 5125,
      "count": 2304,
      "type": "SCALAR"
    }
  ],
  "asset": {
    "extras": {
      "author": "TheCaitasaurus (https://sketchfab.com/thecaitasaurus)",
      "license": "CC-BY-4.0 (http://creativecommons.org/licenses/by/4.0/)",
      "source": "https://sketchfab.com/3d-models/tea-set-3676762cdf1042f4926f53345e133234",
      "title": "Tea Set"
    },
    "generator": "Sketchfab-12.66.0",
    "version": "2.0"
  },
  "bufferViews": [
    {
      "buffer": 0,
      "byteLength": 1335552,
      "name": "floatBufferViews",
      "target": 34963
    },
    {
      "buffer": 0,
      "byteLength": 1392720,
      "byteOffset": 1335552,
      "byteStride": 12,
      "name": "floatBufferViews",
      "target": 34962
    }
  ],
  "buffers": [
    {
      "byteLength": 2728272,
      "uri": "scene.bin"
    }
  ],
  "materials": [
    {
      "doubleSided": true,
      "name": "Material",
      "pbrMetallicRoughness": {
        "baseColorFactor": [
          0.9335126280784607,
          0.9702335000038147,
          1.0,
          1.0
        ],
        "metallicFactor": 0.0,
        "roughnessFactor": 0.4
      }
    },
    {
      "doubleSided": true,
      "name": "Cup-base",
      "pbrMetallicRoughness": {
        "baseColorFactor": [
          0.3497657775878905,
          0.6357721090316774,
          0.6738470196723938,
          1.0
        ],
        "metallicFactor": 0.0,
        "roughnessFactor": 0.4
      }
    },
    {
      "doubleSided": true,
      "name": "Cup-highlight",
      "pbrMetallicRoughness": {
        "baseColorFactor": [
          0.783914465286133,
          0.5912787184730801,
          0.30046852198026597,
          1.0
        ],
        "metallicFactor": 0.2785115751830287,
        "roughnessFactor": 0.24077572612642492
      }
    },
    {
      "doubleSided": true,
      "name": "Material.001",
      "pbrMetallicRoughness": {
        "baseColorFactor": [
          0.4868965744972229,
          0.4584288001060486,
          0.4584288001060486,
          1.0
        ],
        "metallicFactor": 0.40429773870504127,
        "roughnessFactor": 0.20932918524592178
      }
    }
  ],
  "meshes": [
    {
      "name": "Teapot_0",
      "primitives": [
        {
          "attributes": {
            "NORMAL": 1,
            "POSITION": 0
          },
          "indices": 2,
          "material": 0,
          "mode": 4
        }
      ]
    },
    {
      "name": "Teapot_1",
      "primitives": [
        {
          "attributes": {
            "NORMAL": 4,
            "POSITION": 3
          },
          "indices": 5,
          "material": 1,
          "mode": 4
        }
      ]
    },
    {
      "name": "Teapot_2",
      "primitives": [
        {
          "attributes": {
            "NORMAL": 7,
            "POSITION": 6
          },
          "indices": 8,
          "material": 2,
          "mode": 4
        }
      ]
    },
    {
      "name": "Teapot_Lid_0",
      "primitives": [
        {
          "attributes": {
            "NORMAL": 10,
            "POSITION": 9
          },
          "indices": 11,
          "material": 0,
          "mode": 4
        }
      ]
    },
    {
      "name": "Teapot_Lid_1",
      "primitives": [
        {
          "attributes": {
            "NORMAL": 13,
            "POSITION": 12
          },
          "indices": 14,
          "material": 2,
          "mode": 4
        }
      ]
    },
    {
      "name": "Teapot_Lid_2",
      "primitives": [
        {
          "attributes": {
            "NORMAL": 16,
            "POSITION": 15
          },
          "indices": 17,
          "material": 1,
          "mode": 4
        }
      ]
    },
    {
      "name": "Teacup_0",
      "primitives": [
        {
          "attributes": {
            "NORMAL": 19,
            "POSITION": 18
          },
          "indices": 20,
          "material": 0,
          "mode": 4
        }
      ]
    },
    {
      "name": "Teacup_1",
      "primitives": [
        {
          "attributes": {
            "NORMAL": 22,
            "POSITION": 21
          },
          "indices": 23,
          "material": 1,
          "mode": 4
        }
      ]
    },
    {
      "name": "Teacup_2",
      "primitives": [
        {
          "attributes": {
            "NORMAL": 25,
            "POSITION": 24
          },
          "indices": 26,
          "material": 2,
          "mode": 4
        }
      ]
    },
    {
      "name": "Teacup_Saucer_0",
      "primitives": [
        {
          "attributes": {
            "NORMAL": 28,
            "POSITION": 27
          },
          "indices": 29,
          "material": 1,
          "mode": 4
        }
      ]
    },
    {
      "name": "Teacup_Saucer_1",
      "primitives": [
        {
          "attributes": {
            "NORMAL": 31,
            "POSITION": 30
          },
          "indices": 32,
          "material": 2,
          "mode": 4
        }
      ]
    },
    {
      "name": "Plane_0",
      "primitives": [
        {
          "attributes": {
            "NORMAL": 34,
            "POSITION": 33
          },
          "indices": 35,
          "material": 3,
          "mode": 4
        }
      ]
    },
    {
      "name": "Teacup.001_0",
      "primitives": [
        {
          "attributes": {
            "NORMAL": 37,
            "POSITION": 36
          },
          "indices": 38,
          "material": 0,
          "mode": 4
        }
      ]
    },
    {
      "name": "Teacup.001_1",
      "primitives": [
        {
          "attributes": {
            "NORMAL": 40,
            "POSITION": 39
          },
          "indices": 41,
          "material": 1,
          "mode": 4
        }
      ]
    },
    {
      "name": "Teacup.001_2",
      "primitives": [
        {
          "attributes": {
            "NORMAL": 43,
            "POSITION": 42
          },
          "indices": 44,
          "material": 2,
          "mode": 4
        }
      ]
    },
    {
      "name": "Teacup_Saucer.001_0",
      "primitives": [
        {
          "attributes": {
            "NORMAL": 46,
            "POSITION": 45
          },
          "indices": 47,
          "material": 1,
          "mode": 4
        }
      ]
    },
    {
      "name": "Teacup_Saucer.001_1",
      "primitives": [
        {
          "attributes": {
            "NORMAL": 49,
            "POSITION": 48
          },
          "indices": 50,
          "material": 2,
          "mode": 4
        }
      ]
    },
    {
      "name": "Teacup.002_0",
      "primitives": [
        {
          "attributes": {
            "NORMAL": 52,
            "POSITION": 51
          },
          "indices": 53,
          "material": 0,
          "mode": 4
        }
      ]
    },
    {
      "name": "Teacup.002_1",
      "primitives": [
        {
          "attributes": {
            "NORMAL": 55,
            "POSITION": 54
          },
          "indices": 56,
          "material": 1,
          "mode": 4
        }
      ]
    },
    {
      "name": "Teacup.002_2",
      "primitives": [
        {
          "attributes": {
            "NORMAL": 58,
            "POSITION": 57
          },
          "indices": 59,
          "material": 2,
          "mode": 4
        }
      ]
    },
    {
      "name": "Teacup_Saucer.002_0",
      "primitives": [
        {
          "attributes": {
            "NORMAL": 61,
            "POSITION": 60
          },
          "indices": 62,
          "material": 1,
          "mode": 4
        }
      ]
    },
    {
      "name": "Teacup_Saucer.002_1",
      "primitives": [
        {
          "attributes": {
            "NORMAL": 64,
            "POSITION": 63
          },
          "indices": 65,
          "material": 2,
          "mode": 4
        }
      ]
    },
    {
      "name": "Teacup.003_0",
      "primitives": [
        {
          "attributes": {
            "NORMAL": 67,
            "POSITION": 66
          },
          "indices": 68,
          "material": 0,
          "mode": 4
        }
      ]
    },
    {
      "name": "Teacup.003_1",
      "primitives": [
        {
          "attributes": {
            "NORMAL": 70,
            "POSITION": 69
          },
          "indices": 71,
          "material": 1,
          "mode": 4
        }
      ]
    },
    {
      "name": "Teacup.003_2",
      "primitives": [
        {
          "attributes": {
            "NORMAL": 73,
            "POSITION": 72
          },
          "indices": 74,
          "material": 2,
          "mode": 4
        }
      ]
    },
    {
      "name": "Teacup_Saucer.003_0",
      "primitives": [
        {
          "attributes": {
            "NORMAL": 76,
            "POSITION": 75
          },
          "indices": 77,
          "material": 1,
          "mode": 4
        }
      ]
    },
    {
      "name": "Teacup_Saucer.003_1",
      "primitives": [
        {
          "attributes": {
            "NORMAL": 79,
            "POSITION": 78
          },
          "indices": 80,
          "material": 2,
          "mode": 4
        }
      ]
    },
    {
      "name": "Teacup.004_0",
      "primitives": [
        {
          "attributes": {
            "NORMAL": 82,
            "POSITION": 81
          },
          "indices": 83,
          "material": 0,
          "mode": 4
        }
      ]
    },
    {
      "name": "Teacup.004_1",
      "primitives": [
        {
          "attributes": {
            "NORMAL": 85,
            "POSITION": 84
          },
          "indices": 86,
          "material": 1,
          "mode": 4
        }
      ]
    },
    {
      "name": "Teacup.004_2",
      "primitives": [
        {
          "attributes": {
            "NORMAL": 88,
            "POSITION": 87
          },
          "indices": 89,
          "material": 2,
          "mode": 4
        }
      ]
    },
    {
      "name": "Teacup_Saucer.004_0",
      "primitives": [
        {
          "attributes": {
            "NORMAL": 91,
            "POSITION": 90
          },
          "indices": 92,
          "material": 1,
          "mode": 4
        }
      ]
    },
    {
      "name": "Teacup_Saucer.004_1",
      "primitives": [
        {
          "attributes": {
            "NORMAL": 94,
            "POSITION": 93
          },
          "indices": 95,
          "material": 2,
          "mode": 4
        }
      ]
    },
    {
      "name": "Teacup.005_0",
      "primitives": [
        {
          "attributes": {
            "NORMAL": 97,
            "POSITION": 96
          },
          "indices": 98,
          "material": 0,
          "mode": 4
        }
      ]
    },
    {
      "name": "Teacup.005_1",
      "primitives": [
        {
          "attributes": {
            "NORMAL": 100,
            "POSITION": 99
          },
          "indices": 101,
          "material": 1,
          "mode": 4
        }
      ]
    },
    {
      "name": "Teacup.005_2",
      "primitives": [
        {
          "attributes": {
            "NORMAL": 103,
            "POSITION": 102
          },
          "indices": 104,
          "material": 2,
          "mode": 4
        }
      ]
    },
    {
      "name": "Teacup_Saucer.005_0",
      "primitives": [
        {
          "attributes": {
            "NORMAL": 106,
            "POSITION": 105
          },
          "indices": 107,
          "material": 1,
          "mode": 4
        }
      ]
    },
    {
      "name": "Teacup_Saucer.005_1",
      "primitives": [
        {
          "attributes": {
            "NORMAL": 109,
            "POSITION": 108
          },
          "indices": 110,
          "material": 2,
          "mode": 4
        }
      ]
    }
  ],
  "nodes": [
    {
      "children": [
        1
      ],
      "matrix": [
        1.0,
        0.0,
        0.0,
        0.0,
        0.0,
        2.220446049250313e-16,
        -1.0,
        0.0,
        0.0,
        1.0,
        2.220446049250313e-16,
        0.0,
        0.0,
        0.0,
        0.0,
        1.0
      ],
      "name": "Sketchfab_model"
    },
    {
      "children": [
        2,
        10,
        17,
        19,
        26,
        33,
        40,
        47
      ],
      "name": "Root"
    },
    {
      "children": [
        3,
        4,
        5,
        6
      ],
      "matrix": [
        1.0,
        0.0,
        0.0,
        0.0,
        0.0,
        1.0,
        0.0,
        0.0,
        0.0,
        0.0,
        1.0,
        0.0,
        -0.6198200000000001,
        0.08546000000000002,
        0.0,
        1.0
      ],
      "name": "Teapot"
    },
    {
      "mesh": 0,
      "name": "Teapot_0"
    },
    {
      "mesh": 1,
      "name": "Teapot_1"
    },
    {
      "mesh": 2,
      "name": "Teapot_2"
    },
    {
      "children": [
        7,
        8,
        9
      ],
      "matrix": [
        1.0,
        0.0,
        0.0,
        0.0,
        0.0,
        1.0,
        0.0,
        0.0,
        0.0,
        0.0,
        1.0,
        0.0,
        -0.002490000000000001,
        -0.004700000000000001,
        1.0720800000000001,
        1.0
      ],
      "name": "Teapot_Lid"
    },
    {
      "mesh": 3,
      "name": "Teapot_Lid_0"
    },
    {
      "mesh": 4,
      "name": "Teapot_Lid_1"
    },
    {
      "mesh": 5,
      "name": "Teapot_Lid_2"
    },
    {
      "children": [
        11,
        12,
        13,
        14
      ],
      "matrix": [
        -0.9976400000000001,
        -0.06864000000000002,
        0.0,
        0.0,
        0.06864000000000002,
        -0.9976400000000001,
        0.0,
        0.0,
        0.0,
        0.0,
        1.0,
        0.0,
        -0.52937,
        -1.2189899999999998,
        0.11842000000000003,
        1.0
      ],
      "name": "Teacup"
    },
    {
      "mesh": 6,
      "name": "Teacup_0"
    },
    {
      "mesh": 7,
      "name": "Teacup_1"
    },
    {
      "mesh": 8,
      "name": "Teacup_2"
    },
    {
      "children": [
        15,
        16
      ],
      "matrix": [
        0.47168000000000004,
        0.0,
        0.0,
        0.0,
        0.0,
        0.47168000000000004,
        0.0,
        0.0,
        0.0,
        0.0,
        0.47168000000000004,
        0.0,
        -0.0,
        0.002960000000000001,
        -0.10077000000000001,
        1.0
      ],
      "name": "Teacup_Saucer"
    },
    {
      "mesh": 9,
      "name": "Teacup_Saucer_0"
    },
    {
      "mesh": 10,
      "name": "Teacup_Saucer_1"
    },
    {
      "children": [
        18
      ],
      "matrix": [
        1.0,
        0.0,
        0.0,
        0.0,
        0.0,
        1.0,
        0.0,
        0.0,
        0.0,
        0.0,
        1.0,
        0.0,
        0.0,
        0.0,
        -0.03611000000000001,
        1.0
      ],
      "name": "Plane"
    },
    {
      "mesh": 11,
      "name": "Plane_0"
    },
    {
      "children": [
        20,
        21,
        22,
        23
      ],
      "matrix": [
        -0.77452,
        -0.6325500000000001,
        0.0,
        0.0,
        0.6325500000000001,
        -0.77452,
        0.0,
        0.0,
        0.0,
        0.0,
        1.0,
        0.0,
        0.3385600000000001,
        -1.2189899999999998,
        0.11842000000000003,
        1.0
      ],
      "name": "Teacup.001"
    },
    {
      "mesh": 12,
      "name": "Teacup.001_0"
    },
    {
      "mesh": 13,
      "name": "Teacup.001_1"
    },
    {
      "mesh": 14,
      "name": "Teacup.001_2"
    },
    {
      "children": [
        24,
        25
      ],
      "matrix": [
        0.47168000000000004,
        -0.0,
        0.0,
        0.0,
        0.0,
        0.47168000000000004,
        0.0,
        0.0,
        0.0,
        0.0,
        0.47168000000000004,
        0.0,
        -0.0,
        0.002960000000000001,
        -0.10077000000000001,
        1.0
      ],
      "name": "Teacup_Saucer.001"
    },
    {
      "mesh": 15,
      "name": "Teacup_Saucer.001_0"
    },
    {
      "mesh": 16,
      "name": "Teacup_Saucer.001_1"
    },
    {
      "children": [
        27,
        28,
        29,
        30
      ],
      "matrix": [
        -0.37465000000000004,
        -0.92717,
        0.0,
        0.0,
        0.92717,
        -0.37465000000000004,
        0.0,
        0.0,
        0.0,
        0.0,
        1.0,
        0.0,
        0.6599500000000001,
        -0.5531,
        0.11842000000000003,
        1.0
      ],
      "name": "Teacup.002"
    },
    {
      "mesh": 17,
      "name": "Teacup.002_0"
    },
    {
      "mesh": 18,
      "name": "Teacup.002_1"
    },
    {
      "mesh": 19,
      "name": "Teacup.002_2"
    },
    {
      "children": [
        31,
        32
      ],
      "matrix": [
        0.47168000000000004,
        0.0,
        0.0,
        0.0,
        0.0,
        0.47168000000000004,
        0.0,
        0.0,
        0.0,
        0.0,
        0.47168000000000004,
        0.0,
        0.0,
        0.002960000000000001,
        -0.10077000000000001,
        1.0
      ],
      "name": "Teacup_Saucer.002"
    },
    {
      "mesh": 20,
      "name": "Teacup_Saucer.002_0"
    },
    {
      "mesh": 21,
      "name": "Teacup_Saucer.002_1"
    },
    {
      "children": [
        34,
        35,
        36,
        37
      ],
      "matrix": [
        0.5571400000000001,
        -0.83042,
        0.0,
        0.0,
        0.83042,
        0.5571400000000001,
        0.0,
        0.0,
        0.0,
        0.0,
        1.0,
        0.0,
        0.6599500000000001,
        0.33903000000000005,
        0.11842000000000003,
        1.0
      ],
      "name": "Teacup.003"
    },
    {
      "mesh": 22,
      "name": "Teacup.003_0"
    },
    {
      "mesh": 23,
      "name": "Teacup.003_1"
    },
    {
      "mesh": 24,
      "name": "Teacup.003_2"
    },
    {
      "children": [
        38,
        39
      ],
      "matrix": [
        0.47168000000000004,
        -0.0,
        0.0,
        0.0,
        0.0,
        0.47168000000000004,
        0.0,
        0.0,
        0.0,
        0.0,
        0.47168000000000004,
        0.0,
        -0.0,
        0.002960000000000001,
        -0.10077000000000001,
        1.0
      ],
      "name": "Teacup_Saucer.003"
    },
    {
      "mesh": 25,
      "name": "Teacup_Saucer.003_0"
    },
    {
      "mesh": 26,
      "name": "Teacup_Saucer.003_1"
    },
    {
      "children": [
        41,
        42,
        43,
        44
      ],
      "matrix": [
        0.9678500000000001,
        -0.25152,
        0.0,
        0.0,
        0.25152,
        0.9678500000000001,
        0.0,
        0.0,
        0.0,
        0.0,
        1.0,
        0.0,
        0.42175,
        1.07832,
        0.11842000000000003,
        1.0
      ],
      "name": "Teacup.004"
    },
    {
      "mesh": 27,
      "name": "Teacup.004_0"
    },
    {
      "mesh": 28,
      "name": "Teacup.004_1"
    },
    {
      "mesh": 29,
      "name": "Teacup.004_2"
    },
    {
      "children": [
        45,
        46
      ],
      "matrix": [
        0.47168000000000004,
        0.0,
        0.0,
        0.0,
        0.0,
        0.47168000000000004,
        0.0,
        0.0,
        0.0,
        0.0,
        0.47168000000000004,
        0.0,
        0.0,
        0.002960000000000001,
        -0.10077000000000001,
        1.0
      ],
      "name": "Teacup_Saucer.004"
    },
    {
      "mesh": 30,
      "name": "Teacup_Saucer.004_0"
    },
    {
      "mesh": 31,
      "name": "Teacup_Saucer.004_1"
    },
    {
      "children": [
        48,
        49,
        50,
        51
      ],
      "matrix": [
        0.9967,
        0.08115000000000001,
        0.0,
        0.0,
        -0.08115000000000001,
        0.9967,
        0.0,
        0.0,
        0.0,
        0.0,
        1.0,
        0.0,
        -0.41622000000000003,
        1.07832,
        0.11842000000000003,
        1.0
      ],
      "name": "Teacup.005"
    },
    {
      "mesh": 32,
      "name": "Teacup.005_0"
    },
    {
      "mesh": 33,
      "name": "Teacup.005_1"
    },
    {
      "mesh": 34,
      "name": "Teacup.005_2"
    },
    {
      "children": [
        52,
        53
      ],
      "matrix": [
        0.47168000000000004,
        0.0,
        0.0,
        0.0,
        0.0,
        0.47168000000000004,
        0.0,
        0.0,
        0.0,
        0.0,
        0.47168000000000004,
        0.0,
        -0.0,
        0.002960000000000001,
        -0.10077000000000001,
        1.0
      ],
      "name": "Teacup_Saucer.005"
    },
    {
      "mesh": 35,
      "name": "Teacup_Saucer.005_0"
    },
    {
      "mesh": 36,
      "name": "Teacup_Saucer.005_1"
    }
  ],
  "scene": 0,
  "scenes": [
    {
      "name": "Sketchfab_Scene",
      "nodes": [
        0
      ]
    }
  ]
}
