{
  "accessors": [
    {
      "bufferView": 2,
      "componentType": 5126,
      "count": 100,
      "max": [
        -0.4519529938697815,
        0.24569599330425262,
        0.7738239765167236
      ],
      "min": [
        -0.46250200271606445,
        -0.18843699991703033,
        0.3396329879760742
      ],
      "type": "VEC3"
    },
    {
      "bufferView": 2,
      "byteOffset": 1200,
      "componentType": 5126,
      "count": 100,
      "max": [
        1.0,
        1.0,
        1.0
      ],
      "min": [
        -1.0,
        -1.0,
        -1.0
      ],
      "type": "VEC3"
    },
    {
      "bufferView": 3,
      "componentType": 5126,
      "count": 100,
      "max": [
        0.0,
        1.0,
        1.0,
        1.0
      ],
      "min": [
        0.0,
        -1.0,
        -1.0,
        1.0
      ],
      "type": "VEC4"
    },
    {
      "bufferView": 1,
      "componentType": 5126,
      "count": 100,
      "max": [
        0.7329840064048767,
        0.9313499927520752
      ],
      "min": [
        0.16268199682235718,
        0.0019529999699443579
      ],
      "type": "VEC2"
    },
    {
      "bufferView": 0,
      "componentType": 5125,
      "count": 288,
      "type": "SCALAR"
    },
    {
      "bufferView": 2,
      "byteOffset": 2400,
      "componentType": 5126,
      "count": 6577,
      "max": [
        0.23171299695968628,
        1.7700270414352417,
        0.4028699994087219
      ],
      "min": [
        -0.23171299695968628,
        -2.233910083770752,
        -0.8471639752388
      ],
      "type": "VEC3"
    },
    {
      "bufferView": 2,
      "byteOffset": 81324,
      "componentType": 5126,
      "count": 6577,
      "max": [
        1.0,
        1.0,
        1.0
      ],
      "min": [
        -1.0,
        -1.0,
        -1.0
      ],
      "type": "VEC3"
    },
    {
      "bufferView": 3,
      "byteOffset": 1600,
      "componentType": 5126,
      "count": 6577,
      "max": [
        1.0,
        1.0,
        1.0,
        1.0
      ],
      "min": [
        -1.0,
        -1.0,
        -1.0,
        -1.0
      ],
      "type": "VEC4"
    },
    {
      "bufferView": 1,
      "byteOffset": 800,
      "componentType": 5126,
      "count": 6577,
      "max": [
        0.996969997882843,
        0.9933000206947327
      ],
      "min": [
        0.002526999916881323,
        0.002526999916881323
      ],
      "type": "VEC2"
    },
    {
      "bufferView": 0,
      "byteOffset": 1152,
      "componentType": 5125,
      "count": 24780,
      "type": "SCALAR"
    },
    {
      "bufferView": 2,
      "byteOffset": 160248,
      "componentType": 5126,
      "count": 9189,
      "max": [
        0.11971200257539749,
        1.2067209482192993,
        0.4510140120983124
      ],
      "min": [
        -0.11971200257539749,
        -1.9419080018997192,
        -0.8534129858016968
      ],
      "type": "VEC3"
    },
    {
      "bufferView": 2,
      "byteOffset": 270516,
      "componentType": 5126,
      "count": 9189,
      "max": [
        1.0,
        1.0,
        1.0
      ],
      "min": [
        -1.0,
        -1.0,
        -1.0
      ],
      "type": "VEC3"
    },
    {
      "bufferView": 3,
      "byteOffset": 106832,
      "componentType": 5126,
      "count": 9189,
      "max": [
        1.0,
        1.0,
        1.0,
        1.0
      ],
      "min": [
        -1.0,
        -1.0,
        -1.0,
        -1.0
      ],
      "type": "VEC4"
    },
    {
      "bufferView": 1,
      "byteOffset": 53416,
      "componentType": 5126,
      "count": 9189,
      "max": [
        0.9974660277366638,
        0.996271014213562
      ],
      "min": [
        0.002526999916881323,
        0.002526999916881323
      ],
      "type": "VEC2"
    },
    {
      "bufferView": 0,
      "byteOffset": 100272,
      "componentType": 5125,
      "count": 24018,
      "type": "SCALAR"
    },
    {
      "bufferView": 2,
      "byteOffset": 380784,
      "componentType": 5126,
      "count": 5892,
      "max": [
        0.2256689965724945,
        0.3408859968185425,
        0.3180150091648102
      ],
      "min": [
        -0.2256689965724945,
        -1.9419080018997192,
        -0.8534129858016968
      ],
      "type": "VEC3"
    },
    {
      "bufferView": 2,
      "byteOffset": 451488,
      "componentType": 5126,
      "count": 5892,
      "max": [
        1.0,
        1.0,
        1.0
      ],
      "min": [
        -1.0,
        -1.0,
        -1.0
      ],
      "type": "VEC3"
    },
    {
      "bufferView": 3,
      "byteOffset": 253856,
      "componentType": 5126,
      "count": 5892,
      "max": [
        1.0,
        1.0,
        1.0,
        1.0
      ],
      "min": [
        -1.0,
        -1.0,
        -1.0,
        -1.0
      ],
      "type": "VEC4"
    },
    {
      "bufferView": 1,
      "byteOffset": 126928,
      "componentType": 5126,
      "count": 5892,
      "max": [
        0.997409999370575,
        0.9939590096473694
      ],
      "min": [
        0.002526999916881323,
        0.0025289999321103096
      ],
      "type": "VEC2"
    },
    {
      "bufferView": 0,
      "byteOffset": 196344,
      "componentType": 5125,
      "count": 17844,
      "type": "SCALAR"
    },
    {
      "bufferView": 2,
      "byteOffset": 522192,
      "componentType": 5126,
      "count": 9392,
      "max": [
        0.11863700300455093,
        1.1972609758377075,
        0.7787709832191467
      ],
      "min": [
        -0.4240260124206543,
        -0.7087950110435486,
        -0.2177640050649643
      ],
      "type": "VEC3"
    },
    {
      "bufferView": 2,
      "byteOffset": 634896,
      "componentType": 5126,
      "count": 9392,
      "max": [
        1.0,
        1.0,
        1.0
      ],
      "min": [
        -1.0,
        -1.0,
        -1.0
      ],
      "type": "VEC3"
    },
    {
      "bufferView": 3,
      "byteOffset": 348128,
      "componentType": 5126,
      "count": 9392,
      "max": [
        1.0,
        1.0,
        1.0,
        1.0
      ],
      "min": [
        -1.0,
        -1.0,
        -1.0,
        1.0
      ],
      "type": "VEC4"
    },
    {
      "bufferView": 1,
      "byteOffset": 174064,
      "componentType": 5126,
      "count": 9392,
      "max": [
        0.9969689846038818,
        0.9951779842376709
      ],
      "min": [
        0.0019529999699443579,
        0.0019529999699443579
      ],
      "type": "VEC2"
    },
    {
      "bufferView": 0,
      "byteOffset": 267720,
      "componentType": 5125,
      "count": 27900,
      "type": "SCALAR"
    },
    {
      "bufferView": 2,
      "byteOffset": 747600,
      "componentType": 5126,
      "count": 7190,
      "max": [
        0.33403199911117554,
        1.1552200317382813,
        0.7845270037651062
      ],
      "min": [
        -0.4713999927043915,
        -1.5173300504684448,
        -0.23053400218486786
      ],
      "type": "VEC3"
    },
    {
      "bufferView": 2,
      "byteOffset": 833880,
      "componentType": 5126,
      "count": 7190,
      "max": [
        1.0,
        1.0,
        1.0
      ],
      "min": [
        -1.0,
        -1.0,
        -1.0
      ],
      "type": "VEC3"
    },
    {
      "bufferView": 3,
      "byteOffset": 498400,
      "componentType": 5126,
      "count": 7190,
      "max": [
        1.0,
        1.0,
        1.0,
        1.0
      ],
      "min": [
        -1.0,
        -1.0,
        -1.0,
        1.0
      ],
      "type": "VEC4"
    },
    {
      "bufferView": 1,
      "byteOffset": 249200,
      "componentType": 5126,
      "count": 7190,
      "max": [
        0.9964920282363892,
        0.9980469942092896
      ],
      "min": [
        0.0019529999699443579,
        0.0019529999699443579
      ],
      "type": "VEC2"
    },
    {
      "bufferView": 0,
      "byteOffset": 379320,
      "componentType": 5125,
      "count": 26484,
      "type": "SCALAR"
    }
  ],
  "asset": {
    "extras": {
      "author": "Andriy Shekh (https://sketchfab.com/sheh5262)",
      "license": "CC-BY-4.0 (http://creativecommons.org/licenses/by/4.0/)",
      "source": "https://sketchfab.com/3d-models/steampunk-gun-0175dfdbbc49479c97daa55ad0dbb79f",
      "title": "Steampunk Gun"
    },
    "generator": "Sketchfab-12.68.0",
    "version": "2.0"
  },
  "bufferViews": [
    {
      "buffer": 0,
      "byteLength": 485256,
      "name": "floatBufferViews",
      "target": 34963
    },
    {
      "buffer": 0,
      "byteLength": 306720,
      "byteOffset": 485256,
      "byteStride": 8,
      "name": "floatBufferViews",
      "target": 34962
    },
    {
      "buffer": 0,
      "byteLength": 920160,
      "byteOffset": 791976,
      "byteStride": 12,
      "name": "floatBufferViews",
      "target": 34962
    },
    {
      "buffer": 0,
      "byteLength": 613440,
      "byteOffset": 1712136,
      "byteStride": 16,
      "name": "floatBufferViews",
      "target": 34962
    }
  ],
  "buffers": [
    {
      "byteLength": 2325576,
      "uri": "scene.bin"
    }
  ],
  "extensionsUsed": [
    "KHR_materials_transmission"
  ],
  "images": [
    {
      "uri": "textures/Low_1_baseColor.png"
    },
    {
      "uri": "textures/Low_1_metallicRoughness.png"
    },
    {
      "uri": "textures/Low_1_normal.png"
    },
    {
      "uri": "textures/Low_2_baseColor.png"
    },
    {
      "uri": "textures/Low_2_metallicRoughness.png"
    },
    {
      "uri": "textures/Low_2_normal.png"
    },
    {
      "uri": "textures/Low_2_Glass_metallicRoughness.png"
    }
  ],
  "materials": [
    {
      "doubleSided": true,
      "name": "Low_1",
      "normalTexture": {
        "index": 2
      },
      "occlusionTexture": {
        "index": 1,
        "strength": 0.792132559935307
      },
      "pbrMetallicRoughness": {
        "baseColorTexture": {
          "index": 0
        },
        "metallicRoughnessTexture": {
          "index": 1
        }
      }
    },
    {
      "doubleSided": true,
      "name": "Low_2",
      "normalTexture": {
        "index": 5
      },
      "occlusionTexture": {
        "index": 4
      },
      "pbrMetallicRoughness": {
        "baseColorTexture": {
          "index": 3
        },
        "metallicRoughnessTexture": {
          "index": 4
        }
      }
    },
    {
      "alphaMode": "BLEND",
      "doubleSided": true,
      "extensions": {
        "KHR_materials_transmission": {
          "transmissionFactor": 1.0
        }
      },
      "name": "Low_2_Glass",
      "normalTexture": {
        "index": 5
      },
      "pbrMetallicRoughness": {
        "baseColorFactor": [
          1.0,
          1.0,
          1.0,
          0.25
        ],
        "baseColorTexture": {
          "index": 3
        },
        "metallicFactor": 0.0,
        "metallicRoughnessTexture": {
          "index": 6
        }
      }
    }
  ],
  "meshes": [
    {
      "name": "Object_0",
      "primitives": [
        {
          "attributes": {
            "NORMAL": 1,
            "POSITION": 0,
            "TANGENT": 2,
            "TEXCOORD_0": 3
          },
          "indices": 4,
          "material": 2,
          "mode": 4
        }
      ]
    },
    {
      "name": "Object_1",
      "primitives": [
        {
          "attributes": {
            "NORMAL": 6,
            "POSITION": 5,
            "TANGENT": 7,
            "TEXCOORD_0": 8
          },
          "indices": 9,
          "material": 0,
          "mode": 4
        }
      ]
    },
    {
      "name": "Object_2",
      "primitives": [
        {
          "attributes": {
            "NORMAL": 11,
            "POSITION": 10,
            "TANGENT": 12,
            "TEXCOORD_0": 13
          },
          "indices": 14,
          "material": 0,
          "mode": 4
        }
      ]
    },
    {
      "name": "Object_3",
      "primitives": [
        {
          "attributes": {
            "NORMAL": 16,
            "POSITION": 15,
            "TANGENT": 17,
            "TEXCOORD_0": 18
          },
          "indices": 19,
          "material": 0,
          "mode": 4
        }
      ]
    },
    {
      "name": "Object_4",
      "primitives": [
        {
          "attributes": {
            "NORMAL": 21,
            "POSITION": 20,
            "TANGENT": 22,
            "TEXCOORD_0": 23
          },
          "indices": 24,
          "material": 1,
          "mode": 4
        }
      ]
    },
    {
      "name": "Object_5",
      "primitives": [
        {
          "attributes": {
            "NORMAL": 26,
            "POSITION": 25,
            "TANGENT": 27,
            "TEXCOORD_0": 28
          },
          "indices": 29,
          "material": 1,
          "mode": 4
        }
      ]
    }
  ],
  "nodes": [
    {
      "children": [
        1
      ],
      "matrix": [
        1.0,
        0.0,
        0.0,
        0.0,
        0.0,
        2.220446049250313e-16,
        -1.0,
        0.0,
        0.0,
        1.0,
        2.220446049250313e-16,
        0.0,
        0.0,
        0.0,
        0.0,
        1.0
      ],
      "name": "Sketchfab_model"
    },
    {
      "children": [
        2,
        3,
        4,
        5,
        6,
        7
      ],
      "name": "Gun3.obj.cleaner.materialmerger.gles"
    },
    {
      "mesh": 0,
      "name": "Object_2"
    },
    {
      "mesh": 1,
      "name": "Object_3"
    },
    {
      "mesh": 2,
      "name": "Object_4"
    },
    {
      "mesh": 3,
      "name": "Object_5"
    },
    {
      "mesh": 4,
      "name": "Object_6"
    },
    {
      "mesh": 5,
      "name": "Object_7"
    }
  ],
  "samplers": [
    {
      "magFilter": 9729,
      "minFilter": 9987,
      "wrapS": 10497,
      "wrapT": 10497
    }
  ],
  "scene": 0,
  "scenes": [
    {
      "name": "Sketchfab_Scene",
      "nodes": [
        0
      ]
    }
  ],
  "textures": [
    {
      "sampler": 0,
      "source": 0
    },
    {
      "sampler": 0,
      "source": 1
    },
    {
      "sampler": 0,
      "source": 2
    },
    {
      "sampler": 0,
      "source": 3
    },
    {
      "sampler": 0,
      "source": 4
    },
    {
      "sampler": 0,
      "source": 5
    },
    {
      "sampler": 0,
      "source": 6
    }
  ]
}
