{
  "accessors": [
    {
      "bufferView": 2,
      "componentType": 5126,
      "count": 65532,
      "max": [
        -0.02371794730424881,
        0.9992109537124634,
        0.0023176034446805716
      ],
      "min": [
        -0.9991766810417175,
        -0.9993284940719604,
        1.646218152018264e-05
      ],
      "type": "VEC3"
    },
    {
      "bufferView": 2,
      "byteOffset": 786384,
      "componentType": 5126,
      "count": 65532,
      "max": [
        0.16836993396282196,
        0.07096444815397263,
        1.0
      ],
      "min": [
        -0.17412039637565613,
        -0.15606915950775146,
        0.9846636056900024
      ],
      "type": "VEC3"
    },
    {
      "bufferView": 1,
      "componentType": 5126,
      "count": 65532,
      "max": [
        0.48999035358428955,
        1.0000015497207642
      ],
      "min": [
        -5.901654367335141e-05,
        -1.4027356201040675e-06
      ],
      "type": "VEC2"
    },
    {
      "bufferView": 0,
      "componentType": 5125,
      "count": 355263,
      "type": "SCALAR"
    },
    {
      "bufferView": 2,
      "byteOffset": 1572768,
      "componentType": 5126,
      "count": 65532,
      "max": [
        0.2825290858745575,
        0.9991185069084167,
        0.0027241052594035864
      ],
      "min": [
        -0.7874614000320435,
        -0.9991962909698486,
        2.5793473469093442e-05
      ],
      "type": "VEC3"
    },
    {
      "bufferView": 2,
      "byteOffset": 2359152,
      "componentType": 5126,
      "count": 65532,
      "max": [
        0.044212039560079575,
        0.9514145851135254,
        1.0
      ],
      "min": [
        -0.3069489002227783,
        -0.149541974067688,
        0.02434844896197319
      ],
      "type": "VEC3"
    },
    {
      "bufferView": 1,
      "byteOffset": 524256,
      "componentType": 5126,
      "count": 65532,
      "max": [
        0.6418458223342896,
        1.000000238418579
      ],
      "min": [
        0.1064453274011612,
        0.0
      ],
      "type": "VEC2"
    },
    {
      "bufferView": 0,
      "byteOffset": 1421052,
      "componentType": 5125,
      "count": 357300,
      "type": "SCALAR"
    },
    {
      "bufferView": 2,
      "byteOffset": 3145536,
      "componentType": 5126,
      "count": 65532,
      "max": [
        0.7013481259346008,
        0.9992203712463379,
        0.00334152695722878
      ],
      "min": [
        -0.6889855265617371,
        -0.998961329460144,
        4.8151207010960206e-05
      ],
      "type": "VEC3"
    },
    {
      "bufferView": 2,
      "byteOffset": 3931920,
      "componentType": 5126,
      "count": 65532,
      "max": [
        0.05724218487739563,
        0.07157322019338608,
        1.0
      ],
      "min": [
        -0.07163123786449432,
        -0.13527914881706238,
        0.9907995462417603
      ],
      "type": "VEC3"
    },
    {
      "bufferView": 1,
      "byteOffset": 1048512,
      "componentType": 5126,
      "count": 65532,
      "max": [
        0.8505860567092896,
        1.000000238418579
      ],
      "min": [
        0.1552734673023224,
        0.0
      ],
      "type": "VEC2"
    },
    {
      "bufferView": 0,
      "byteOffset": 2850252,
      "componentType": 5125,
      "count": 352809,
      "type": "SCALAR"
    },
    {
      "bufferView": 2,
      "byteOffset": 4718304,
      "componentType": 5126,
      "count": 65532,
      "max": [
        0.9992012977600098,
        0.9991421699523926,
        0.0033708165865391493
      ],
      "min": [
        -0.6159045696258545,
        -0.9991511702537537,
        4.0716045077715535e-06
      ],
      "type": "VEC3"
    },
    {
      "bufferView": 2,
      "byteOffset": 5504688,
      "componentType": 5126,
      "count": 65532,
      "max": [
        0.16914823651313782,
        0.07676129788160324,
        1.0
      ],
      "min": [
        -0.17651765048503876,
        -0.14522786438465118,
        0.9842315316200256
      ],
      "type": "VEC3"
    },
    {
      "bufferView": 1,
      "byteOffset": 1572768,
      "componentType": 5126,
      "count": 65532,
      "max": [
        1.0001718997955322,
        1.0000020265579224
      ],
      "min": [
        0.1918945610523224,
        -1.4786210158490576e-06
      ],
      "type": "VEC2"
    },
    {
      "bufferView": 0,
      "byteOffset": 4261488,
      "componentType": 5125,
      "count": 337254,
      "type": "SCALAR"
    },
    {
      "bufferView": 2,
      "byteOffset": 6291072,
      "componentType": 5126,
      "count": 65532,
      "max": [
        0.9978172779083252,
        0.876004159450531,
        0.004782260395586491
      ],
      "min": [
        -0.9980975389480591,
        -0.9989784955978394,
        1.6633528503007255e-05
      ],
      "type": "VEC3"
    },
    {
      "bufferView": 2,
      "byteOffset": 7077456,
      "componentType": 5126,
      "count": 65532,
      "max": [
        0.07159597426652908,
        0.0777171403169632,
        1.0
      ],
      "min": [
        -0.0928351879119873,
        -0.13869015872478485,
        0.9903268814086914
      ],
      "type": "VEC3"
    },
    {
      "bufferView": 1,
      "byteOffset": 2097024,
      "componentType": 5126,
      "count": 65532,
      "max": [
        1.000001311302185,
        0.9379884004592896
      ],
      "min": [
        0.0,
        0.0
      ],
      "type": "VEC2"
    },
    {
      "bufferView": 0,
      "byteOffset": 5610504,
      "componentType": 5125,
      "count": 315480,
      "type": "SCALAR"
    },
    {
      "bufferView": 2,
      "byteOffset": 7863840,
      "componentType": 5126,
      "count": 65532,
      "max": [
        0.795299232006073,
        0.7509558796882629,
        0.005588705651462078
      ],
      "min": [
        -0.5311787128448486,
        -0.7623018026351929,
        1.0572840437816922e-05
      ],
      "type": "VEC3"
    },
    {
      "bufferView": 2,
      "byteOffset": 8650224,
      "componentType": 5126,
      "count": 65532,
      "max": [
        0.09326629340648651,
        0.0748044103384018,
        1.0
      ],
      "min": [
        -0.12239009886980057,
        -0.12460236996412277,
        0.9908263683319092
      ],
      "type": "VEC3"
    },
    {
      "bufferView": 1,
      "byteOffset": 2621280,
      "componentType": 5126,
      "count": 65532,
      "max": [
        0.8974609971046448,
        0.8754884004592896
      ],
      "min": [
        0.23437505960464478,
        0.1191406399011612
      ],
      "type": "VEC2"
    },
    {
      "bufferView": 0,
      "byteOffset": 6872424,
      "componentType": 5125,
      "count": 355128,
      "type": "SCALAR"
    },
    {
      "bufferView": 2,
      "byteOffset": 9436608,
      "componentType": 5126,
      "count": 65532,
      "max": [
        0.8789234161376953,
        0.7510105967521667,
        0.008446834050118923
      ],
      "min": [
        -0.8752610683441162,
        -0.5801417231559753,
        1.7719086827128194e-05
      ],
      "type": "VEC3"
    },
    {
      "bufferView": 2,
      "byteOffset": 10222992,
      "componentType": 5126,
      "count": 65532,
      "max": [
        0.18639786541461945,
        0.12898294627666473,
        1.0
      ],
      "min": [
        -0.24117398262023926,
        -0.20260927081108093,
        0.969870924949646
      ],
      "type": "VEC3"
    },
    {
      "bufferView": 1,
      "byteOffset": 3145536,
      "componentType": 5126,
      "count": 65532,
      "max": [
        0.9389649629592896,
        0.8750831484794617
      ],
      "min": [
        0.0620117112994194,
        0.20996098220348358
      ],
      "type": "VEC2"
    },
    {
      "bufferView": 0,
      "byteOffset": 8292936,
      "componentType": 5125,
      "count": 334287,
      "type": "SCALAR"
    },
    {
      "bufferView": 2,
      "byteOffset": 11009376,
      "componentType": 5126,
      "count": 65532,
      "max": [
        0.8733165860176086,
        0.6262189745903015,
        0.008687750436365604
      ],
      "min": [
        -0.8764716982841492,
        -0.34769177436828613,
        9.345328726340085e-05
      ],
      "type": "VEC3"
    },
    {
      "bufferView": 2,
      "byteOffset": 11795760,
      "componentType": 5126,
      "count": 65532,
      "max": [
        0.20117032527923584,
        0.16447962820529938,
        1.0
      ],
      "min": [
        -0.23850099742412567,
        -0.23473775386810303,
        0.9656409025192261
      ],
      "type": "VEC3"
    },
    {
      "bufferView": 1,
      "byteOffset": 3669792,
      "componentType": 5126,
      "count": 65532,
      "max": [
        0.9365235567092896,
        0.8129884004592896
      ],
      "min": [
        0.0620117224752903,
        0.3261719346046448
      ],
      "type": "VEC2"
    },
    {
      "bufferView": 0,
      "byteOffset": 9630084,
      "componentType": 5125,
      "count": 336816,
      "type": "SCALAR"
    },
    {
      "bufferView": 2,
      "byteOffset": 12582144,
      "componentType": 5126,
      "count": 65532,
      "max": [
        0.8810086250305176,
        0.5014569163322449,
        0.008736222051084042
      ],
      "min": [
        -0.8782052993774414,
        -0.2542901337146759,
        6.972306437091902e-06
      ],
      "type": "VEC3"
    },
    {
      "bufferView": 2,
      "byteOffset": 13368528,
      "componentType": 5126,
      "count": 65532,
      "max": [
        0.2251185178756714,
        0.15803591907024384,
        1.0
      ],
      "min": [
        -0.24902819097042084,
        -0.22939133644104004,
        0.9674533605575562
      ],
      "type": "VEC3"
    },
    {
      "bufferView": 1,
      "byteOffset": 4194048,
      "componentType": 5126,
      "count": 65532,
      "max": [
        0.9407820701599121,
        0.7504884004592896
      ],
      "min": [
        0.061035167425870895,
        0.3730469346046448
      ],
      "type": "VEC2"
    },
    {
      "bufferView": 0,
      "byteOffset": 10977348,
      "componentType": 5125,
      "count": 249969,
      "type": "SCALAR"
    },
    {
      "bufferView": 2,
      "byteOffset": 14154912,
      "componentType": 5126,
      "count": 50895,
      "max": [
        0.9977539777755737,
        0.998865008354187,
        0.006559363566339016
      ],
      "min": [
        -0.9988505840301514,
        -0.9989144802093506,
        4.7782787078176625e-06
      ],
      "type": "VEC3"
    },
    {
      "bufferView": 2,
      "byteOffset": 14765652,
      "componentType": 5126,
      "count": 50895,
      "max": [
        0.1629909723997116,
        0.1271315962076187,
        1.0
      ],
      "min": [
        -0.14982160925865173,
        -0.1985602080821991,
        0.9695806503295898
      ],
      "type": "VEC3"
    },
    {
      "bufferView": 1,
      "byteOffset": 4718304,
      "componentType": 5126,
      "count": 50895,
      "max": [
        1.0000003576278687,
        1.0000004768371582
      ],
      "min": [
        -2.533969423179627e-10,
        0.0
      ],
      "type": "VEC2"
    },
    {
      "bufferView": 0,
      "byteOffset": 11977224,
      "componentType": 5125,
      "count": 151422,
      "type": "SCALAR"
    }
  ],
  "asset": {
    "extras": {
      "author": "Šimon Ustal (https://sketchfab.com/simonustal)",
      "license": "CC-BY-4.0 (http://creativecommons.org/licenses/by/4.0/)",
      "source": "https://sketchfab.com/3d-models/mountainous-desert-e52a730cae444a80b85ff1ee5bd20879",
      "title": "Mountainous Desert"
    },
    "generator": "Sketchfab-12.68.0",
    "version": "2.0"
  },
  "bufferViews": [
    {
      "buffer": 0,
      "byteLength": 12582912,
      "name": "floatBufferViews",
      "target": 34963
    },
    {
      "buffer": 0,
      "byteLength": 5125464,
      "byteOffset": 12582912,
      "byteStride": 8,
      "name": "floatBufferViews",
      "target": 34962
    },
    {
      "buffer": 0,
      "byteLength": 15376392,
      "byteOffset": 17708376,
      "byteStride": 12,
      "name": "floatBufferViews",
      "target": 34962
    }
  ],
  "buffers": [
    {
      "byteLength": 33084768,
      "uri": "scene.bin"
    }
  ],
  "images": [
    {
      "uri": "textures/Material.001_baseColor.png"
    },
    {
      "uri": "textures/Material.001_metallicRoughness.png"
    }
  ],
  "materials": [
    {
      "doubleSided": true,
      "name": "Material.001",
      "occlusionTexture": {
        "index": 1
      },
      "pbrMetallicRoughness": {
        "baseColorTexture": {
          "index": 0
        },
        "metallicFactor": 0.3080625057220459,
        "metallicRoughnessTexture": {
          "index": 1
        }
      }
    }
  ],
  "meshes": [
    {
      "name": "Plane_Material.001_0",
      "primitives": [
        {
          "attributes": {
            "NORMAL": 1,
            "POSITION": 0,
            "TEXCOORD_0": 2
          },
          "indices": 3,
          "material": 0,
          "mode": 4
        }
      ]
    },
    {
      "name": "Plane_Material.001_0",
      "primitives": [
        {
          "attributes": {
            "NORMAL": 5,
            "POSITION": 4,
            "TEXCOORD_0": 6
          },
          "indices": 7,
          "material": 0,
          "mode": 4
        }
      ]
    },
    {
      "name": "Plane_Material.001_0",
      "primitives": [
        {
          "attributes": {
            "NORMAL": 9,
            "POSITION": 8,
            "TEXCOORD_0": 10
          },
          "indices": 11,
          "material": 0,
          "mode": 4
        }
      ]
    },
    {
      "name": "Plane_Material.001_0",
      "primitives": [
        {
          "attributes": {
            "NORMAL": 13,
            "POSITION": 12,
            "TEXCOORD_0": 14
          },
          "indices": 15,
          "material": 0,
          "mode": 4
        }
      ]
    },
    {
      "name": "Plane_Material.001_0",
      "primitives": [
        {
          "attributes": {
            "NORMAL": 17,
            "POSITION": 16,
            "TEXCOORD_0": 18
          },
          "indices": 19,
          "material": 0,
          "mode": 4
        }
      ]
    },
    {
      "name": "Plane_Material.001_0",
      "primitives": [
        {
          "attributes": {
            "NORMAL": 21,
            "POSITION": 20,
            "TEXCOORD_0": 22
          },
          "indices": 23,
          "material": 0,
          "mode": 4
        }
      ]
    },
    {
      "name": "Plane_Material.001_0",
      "primitives": [
        {
          "attributes": {
            "NORMAL": 25,
            "POSITION": 24,
            "TEXCOORD_0": 26
          },
          "indices": 27,
          "material": 0,
          "mode": 4
        }
      ]
    },
    {
      "name": "Plane_Material.001_0",
      "primitives": [
        {
          "attributes": {
            "NORMAL": 29,
            "POSITION": 28,
            "TEXCOORD_0": 30
          },
          "indices": 31,
          "material": 0,
          "mode": 4
        }
      ]
    },
    {
      "name": "Plane_Material.001_0",
      "primitives": [
        {
          "attributes": {
            "NORMAL": 33,
            "POSITION": 32,
            "TEXCOORD_0": 34
          },
          "indices": 35,
          "material": 0,
          "mode": 4
        }
      ]
    },
    {
      "name": "Plane_Material.001_0",
      "primitives": [
        {
          "attributes": {
            "NORMAL": 37,
            "POSITION": 36,
            "TEXCOORD_0": 38
          },
          "indices": 39,
          "material": 0,
          "mode": 4
        }
      ]
    }
  ],
  "nodes": [
    {
      "children": [
        1
      ],
      "matrix": [
        1.0,
        0.0,
        0.0,
        0.0,
        0.0,
        2.220446049250313e-16,
        -1.0,
        0.0,
        0.0,
        1.0,
        2.220446049250313e-16,
        0.0,
        0.0,
        0.0,
        0.0,
        1.0
      ],
      "name": "Sketchfab_model"
    },
    {
      "children": [
        2
      ],
      "matrix": [
        1.0,
        0.0,
        0.0,
        0.0,
        0.0,
        0.0,
        1.0,
        0.0,
        0.0,
        -1.0,
        0.0,
        0.0,
        0.0,
        0.0,
        0.0,
        1.0
      ],
      "name": "5e95ce7ad33f4e77924747eab5923c53.fbx"
    },
    {
      "children": [
        3,
        5,
        8,
        11,
        13,
        24,
        27
      ],
      "name": "RootNode"
    },
    {
      "children": [
        4
      ],
      "matrix": [
        -65.15583048631922,
        -44.52712848496765,
        -61.41702578798792,
        0.0,
        -32.401335185591705,
        89.53956278095312,
        -30.542079976777014,
        0.0,
        68.592052790029,
        -9.470078337315971e-06,
        -72.76763544441263,
        0.0,
        748.1131591796875,
        534.3665161132813,
        650.763916015625,
        1.0
      ],
      "name": "Camera.002"
    },
    {
      "name": "Object_4"
    },
    {
      "children": [
        6
      ],
      "matrix": [
        -29.086464451752825,
        -5.518900446507607,
        -95.51711534357838,
        0.0,
        56.63932116211723,
        79.46722801901794,
        -21.839115578886208,
        0.0,
        77.11007701143383,
        -60.452467701511644,
        -19.98833775504079,
        0.0,
        407.6245422363281,
        590.38623046875,
        -100.54539489746094,
        1.0
      ],
      "name": "Lamp.001"
    },
    {
      "children": [
        7
      ],
      "matrix": [
        1.0,
        0.0,
        0.0,
        0.0,
        0.0,
        2.220446049250313e-16,
        1.0,
        0.0,
        0.0,
        -1.0,
        2.220446049250313e-16,
        0.0,
        0.0,
        0.0,
        0.0,
        1.0
      ],
      "name": "Object_6"
    },
    {
      "name": "Object_7"
    },
    {
      "children": [
        9
      ],
      "matrix": [
        -29.08646815115745,
        -5.518893065967794,
        -95.51712263095595,
        0.0,
        56.63930625770073,
        79.46722232091875,
        -21.83910509811415,
        0.0,
        77.11008105261651,
        -60.45245996435221,
        -19.988345565315242,
        0.0,
        407.6245422363281,
        590.38623046875,
        -100.54539489746094,
        1.0
      ],
      "name": "Light"
    },
    {
      "children": [
        10
      ],
      "matrix": [
        1.0,
        0.0,
        0.0,
        0.0,
        0.0,
        2.220446049250313e-16,
        1.0,
        0.0,
        0.0,
        -1.0,
        2.220446049250313e-16,
        0.0,
        0.0,
        0.0,
        0.0,
        1.0
      ],
      "name": "Object_9"
    },
    {
      "name": "Object_10"
    },
    {
      "children": [
        12
      ],
      "matrix": [
        -65.15583579436607,
        -44.52712071778707,
        -61.41702578798792,
        0.0,
        -32.40132655584627,
        89.53956664349312,
        -30.54207780813248,
        0.0,
        68.592046591234,
        -1.4978400038483453e-05,
        -72.76763080290701,
        0.0,
        735.88916015625,
        495.8309326171875,
        692.5791015625,
        1.0
      ],
      "name": "Camera.001"
    },
    {
      "name": "Object_12"
    },
    {
      "children": [
        14,
        15,
        16,
        17,
        18,
        19,
        20,
        21,
        22,
        23
      ],
      "matrix": [
        507.4168701171875,
        0.0,
        0.0,
        0.0,
        0.0,
        -8.266870121436887e-05,
        -507.4168701171808,
        0.0,
        0.0,
        9659.474609374873,
        -0.0015737281659275204,
        0.0,
        0.0,
        0.0,
        0.0,
        1.0
      ],
      "name": "Plane"
    },
    {
      "mesh": 0,
      "name": "Plane_Material.001_0"
    },
    {
      "mesh": 1,
      "name": "Plane_Material.001_0"
    },
    {
      "mesh": 2,
      "name": "Plane_Material.001_0"
    },
    {
      "mesh": 3,
      "name": "Plane_Material.001_0"
    },
    {
      "mesh": 4,
      "name": "Plane_Material.001_0"
    },
    {
      "mesh": 5,
      "name": "Plane_Material.001_0"
    },
    {
      "mesh": 6,
      "name": "Plane_Material.001_0"
    },
    {
      "mesh": 7,
      "name": "Plane_Material.001_0"
    },
    {
      "mesh": 8,
      "name": "Plane_Material.001_0"
    },
    {
      "mesh": 9,
      "name": "Plane_Material.001_0"
    },
    {
      "children": [
        25
      ],
      "matrix": [
        -29.08647719990347,
        -5.518906457566863,
        -95.51711910171437,
        0.0,
        56.63930913109449,
        79.46723428563203,
        -21.83912397841966,
        0.0,
        77.11008775993375,
        -60.45246356562044,
        -19.98834696773717,
        0.0,
        407.6245422363281,
        590.38623046875,
        -100.54539489746094,
        1.0
      ],
      "name": "Lamp"
    },
    {
      "children": [
        26
      ],
      "matrix": [
        1.0,
        0.0,
        0.0,
        0.0,
        0.0,
        2.220446049250313e-16,
        1.0,
        0.0,
        0.0,
        -1.0,
        2.220446049250313e-16,
        0.0,
        0.0,
        0.0,
        0.0,
        1.0
      ],
      "name": "Object_25"
    },
    {
      "name": "Object_26"
    },
    {
      "children": [
        28
      ],
      "matrix": [
        -65.15583280329096,
        -44.52713576570858,
        -61.41703047373549,
        0.0,
        -32.40134137821245,
        89.53957451233616,
        -30.542088974418615,
        0.0,
        68.59205472129975,
        -1.0718647115348782e-05,
        -72.7676336239627,
        0.0,
        748.1131591796875,
        534.3665161132813,
        650.7639770507813,
        1.0
      ],
      "name": "Camera"
    },
    {
      "name": "Object_28"
    }
  ],
  "samplers": [
    {
      "magFilter": 9729,
      "minFilter": 9987,
      "wrapS": 10497,
      "wrapT": 10497
    }
  ],
  "scene": 0,
  "scenes": [
    {
      "name": "Sketchfab_Scene",
      "nodes": [
        0
      ]
    }
  ],
  "textures": [
    {
      "sampler": 0,
      "source": 0
    },
    {
      "sampler": 0,
      "source": 1
    }
  ]
}
