{
  "accessors": [
    {
      "bufferView": 2,
      "componentType": 5126,
      "count": 65534,
      "max": [
        0.39077800512313843,
        0.06803900003433228,
        0.6174619793891907
      ],
      "min": [
        -0.38818401098251343,
        -0.5,
        0.00012199999764561653
      ],
      "type": "VEC3"
    },
    {
      "bufferView": 2,
      "byteOffset": 786408,
      "componentType": 5126,
      "count": 65534,
      "max": [
        1.0,
        0.996518075466156,
        1.0
      ],
      "min": [
        -0.9997944235801697,
        -1.0,
        -1.0
      ],
      "type": "VEC3"
    },
    {
      "bufferView": 1,
      "componentType": 5126,
      "count": 65534,
      "max": [
        0.9980469942092896,
        0.9882810115814209
      ],
      "min": [
        0.00024399999529123306,
        0.0014649999793618917
      ],
      "type": "VEC2"
    },
    {
      "bufferView": 0,
      "componentType": 5125,
      "count": 189339,
      "type": "SCALAR"
    },
    {
      "bufferView": 2,
      "byteOffset": 1572816,
      "componentType": 5126,
      "count": 65532,
      "max": [
        0.2460779994726181,
        0.5,
        0.6172789931297302
      ],
      "min": [
        -0.39077800512313843,
        -0.4674989879131317,
        0.00033599999733269215
      ],
      "type": "VEC3"
    },
    {
      "bufferView": 2,
      "byteOffset": 2359200,
      "componentType": 5126,
      "count": 65532,
      "max": [
        0.9978671669960022,
        1.0,
        1.0
      ],
      "min": [
        -0.9999615550041199,
        -1.0,
        -1.0
      ],
      "type": "VEC3"
    },
    {
      "bufferView": 1,
      "byteOffset": 524272,
      "componentType": 5126,
      "count": 65532,
      "max": [
        0.9990230202674866,
        0.9841309785842896
      ],
      "min": [
        0.0148930000141263,
        0.0019529999699443579
      ],
      "type": "VEC2"
    },
    {
      "bufferView": 0,
      "byteOffset": 757356,
      "componentType": 5125,
      "count": 176346,
      "type": "SCALAR"
    },
    {
      "bufferView": 2,
      "byteOffset": 3145584,
      "componentType": 5126,
      "count": 65532,
      "max": [
        0.3901059925556183,
        0.4968569874763489,
        0.6174619793891907
      ],
      "min": [
        -0.39077800512313843,
        -0.3785710036754608,
        0.0006099999882280827
      ],
      "type": "VEC3"
    },
    {
      "bufferView": 2,
      "byteOffset": 3931968,
      "componentType": 5126,
      "count": 65532,
      "max": [
        0.999512255191803,
        0.9989457130432129,
        1.0
      ],
      "min": [
        -1.0,
        -0.9984222054481506,
        -1.0
      ],
      "type": "VEC3"
    },
    {
      "bufferView": 1,
      "byteOffset": 1048528,
      "componentType": 5126,
      "count": 65532,
      "max": [
        0.9997559785842896,
        0.9887700080871582
      ],
      "min": [
        0.0009769999887794256,
        0.004395000170916319
      ],
      "type": "VEC2"
    },
    {
      "bufferView": 0,
      "byteOffset": 1462740,
      "componentType": 5125,
      "count": 163206,
      "type": "SCALAR"
    },
    {
      "bufferView": 2,
      "byteOffset": 4718352,
      "componentType": 5126,
      "count": 6986,
      "max": [
        0.14433300495147705,
        -0.12274900078773499,
        0.23976099491119385
      ],
      "min": [
        -0.22628800570964813,
        -0.3884280025959015,
        0.00012199999764561653
      ],
      "type": "VEC3"
    },
    {
      "bufferView": 2,
      "byteOffset": 4802184,
      "componentType": 5126,
      "count": 6986,
      "max": [
        0.8422093391418457,
        0.9657993316650391,
        1.0
      ],
      "min": [
        -0.7364158034324646,
        -0.9946480393409729,
        -1.0
      ],
      "type": "VEC3"
    },
    {
      "bufferView": 1,
      "byteOffset": 1572784,
      "componentType": 5126,
      "count": 6986,
      "max": [
        0.9716799855232239,
        0.5827640295028687
      ],
      "min": [
        0.07226599752902985,
        0.06665000319480896
      ],
      "type": "VEC2"
    },
    {
      "bufferView": 0,
      "byteOffset": 2115564,
      "componentType": 5125,
      "count": 16845,
      "type": "SCALAR"
    },
    {
      "bufferView": 2,
      "byteOffset": 4886016,
      "componentType": 5126,
      "count": 65532,
      "max": [
        0.39080798625946045,
        -0.01580199971795082,
        0.6174619793891907
      ],
      "min": [
        -0.030128000304102898,
        -0.4996640086174011,
        0.19462600350379944
      ],
      "type": "VEC3"
    },
    {
      "bufferView": 2,
      "byteOffset": 5672400,
      "componentType": 5126,
      "count": 65532,
      "max": [
        0.9998978972434998,
        0.9996559023857117,
        1.0
      ],
      "min": [
        -0.9988158345222473,
        -0.9981029033660889,
        -0.9680018424987793
      ],
      "type": "VEC3"
    },
    {
      "bufferView": 1,
      "byteOffset": 1628672,
      "componentType": 5126,
      "count": 65532,
      "max": [
        0.9899899959564209,
        0.9887700080871582
      ],
      "min": [
        0.02710000053048134,
        0.0019529999699443579
      ],
      "type": "VEC2"
    },
    {
      "bufferView": 0,
      "byteOffset": 2182944,
      "componentType": 5125,
      "count": 321486,
      "type": "SCALAR"
    },
    {
      "bufferView": 2,
      "byteOffset": 6458784,
      "componentType": 5126,
      "count": 65532,
      "max": [
        0.36456298828125,
        0.04453299939632416,
        0.6170960068702698
      ],
      "min": [
        -0.1523739993572235,
        -0.4999389946460724,
        0.0
      ],
      "type": "VEC3"
    },
    {
      "bufferView": 2,
      "byteOffset": 7245168,
      "componentType": 5126,
      "count": 65532,
      "max": [
        1.0,
        0.9998092651367188,
        1.0
      ],
      "min": [
        -0.9999645948410034,
        -0.9999249577522278,
        -1.0
      ],
      "type": "VEC3"
    },
    {
      "bufferView": 1,
      "byteOffset": 2152928,
      "componentType": 5126,
      "count": 65532,
      "max": [
        0.9985349774360657,
        0.8701170086860657
      ],
      "min": [
        0.00024399999529123306,
        0.0009769999887794256
      ],
      "type": "VEC2"
    },
    {
      "bufferView": 0,
      "byteOffset": 3468888,
      "componentType": 5125,
      "count": 300768,
      "type": "SCALAR"
    },
    {
      "bufferView": 2,
      "byteOffset": 8031552,
      "componentType": 5126,
      "count": 65532,
      "max": [
        0.11772900074720383,
        0.017674999311566353,
        0.6174929738044739
      ],
      "min": [
        -0.39080798625946045,
        -0.5,
        0.18131999671459198
      ],
      "type": "VEC3"
    },
    {
      "bufferView": 2,
      "byteOffset": 8817936,
      "componentType": 5126,
      "count": 65532,
      "max": [
        1.0,
        0.9946513175964355,
        1.0
      ],
      "min": [
        -1.0,
        -0.9999755620956421,
        -0.8284175992012024
      ],
      "type": "VEC3"
    },
    {
      "bufferView": 1,
      "byteOffset": 2677184,
      "componentType": 5126,
      "count": 65532,
      "max": [
        0.8894039988517761,
        0.9765620231628418
      ],
      "min": [
        0.0,
        0.20898400247097015
      ],
      "type": "VEC2"
    },
    {
      "bufferView": 0,
      "byteOffset": 4671960,
      "componentType": 5125,
      "count": 315408,
      "type": "SCALAR"
    },
    {
      "bufferView": 2,
      "byteOffset": 9604320,
      "componentType": 5126,
      "count": 65532,
      "max": [
        0.17439299821853638,
        0.23848000168800354,
        0.6173710227012634
      ],
      "min": [
        -0.38168299198150635,
        -0.46670499444007874,
        0.0
      ],
      "type": "VEC3"
    },
    {
      "bufferView": 2,
      "byteOffset": 10390704,
      "componentType": 5126,
      "count": 65532,
      "max": [
        1.0,
        1.0,
        1.0
      ],
      "min": [
        -1.0,
        -1.0,
        -1.0
      ],
      "type": "VEC3"
    },
    {
      "bufferView": 1,
      "byteOffset": 3201440,
      "componentType": 5126,
      "count": 65532,
      "max": [
        0.9755859971046448,
        0.9794920086860657
      ],
      "min": [
        0.0720210000872612,
        0.013915999792516232
      ],
      "type": "VEC2"
    },
    {
      "bufferView": 0,
      "byteOffset": 5933592,
      "componentType": 5125,
      "count": 288048,
      "type": "SCALAR"
    },
    {
      "bufferView": 2,
      "byteOffset": 11177088,
      "componentType": 5126,
      "count": 65532,
      "max": [
        0.2738040089607239,
        0.5,
        0.6174319982528687
      ],
      "min": [
        -0.36083999276161194,
        -0.15895099937915802,
        0.004333000164479017
      ],
      "type": "VEC3"
    },
    {
      "bufferView": 2,
      "byteOffset": 11963472,
      "componentType": 5126,
      "count": 65532,
      "max": [
        0.9997454285621643,
        1.0,
        1.0
      ],
      "min": [
        -1.0,
        -1.0,
        -1.0
      ],
      "type": "VEC3"
    },
    {
      "bufferView": 1,
      "byteOffset": 3725696,
      "componentType": 5126,
      "count": 65532,
      "max": [
        0.9995120167732239,
        0.9848629832267761
      ],
      "min": [
        0.0004879999905824661,
        0.00024399999529123306
      ],
      "type": "VEC2"
    },
    {
      "bufferView": 0,
      "byteOffset": 7085784,
      "componentType": 5125,
      "count": 314091,
      "type": "SCALAR"
    },
    {
      "bufferView": 2,
      "byteOffset": 12749856,
      "componentType": 5126,
      "count": 65532,
      "max": [
        0.1740570068359375,
        0.47851601243019104,
        0.6172490119934082
      ],
      "min": [
        -0.3716430068016052,
        -0.22952300310134888,
        0.0010679999832063913
      ],
      "type": "VEC3"
    },
    {
      "bufferView": 2,
      "byteOffset": 13536240,
      "componentType": 5126,
      "count": 65532,
      "max": [
        0.9998453259468079,
        0.9999999403953552,
        1.0
      ],
      "min": [
        -0.9998719692230225,
        -0.999922513961792,
        -1.0
      ],
      "type": "VEC3"
    },
    {
      "bufferView": 1,
      "byteOffset": 4249952,
      "componentType": 5126,
      "count": 65532,
      "max": [
        0.9978029727935791,
        0.9750980138778687
      ],
      "min": [
        0.13769499957561493,
        0.07153300195932388
      ],
      "type": "VEC2"
    },
    {
      "bufferView": 0,
      "byteOffset": 8342148,
      "componentType": 5125,
      "count": 304452,
      "type": "SCALAR"
    },
    {
      "bufferView": 2,
      "byteOffset": 14322624,
      "componentType": 5126,
      "count": 65532,
      "max": [
        0.38214099407196045,
        0.457489013671875,
        0.6173710227012634
      ],
      "min": [
        -0.39080798625946045,
        -0.3163760006427765,
        0.017669999971985817
      ],
      "type": "VEC3"
    },
    {
      "bufferView": 2,
      "byteOffset": 15109008,
      "componentType": 5126,
      "count": 65532,
      "max": [
        0.9999307990074158,
        1.0,
        0.9999962449073792
      ],
      "min": [
        -0.9999186396598816,
        -1.0,
        -0.9969419836997986
      ],
      "type": "VEC3"
    },
    {
      "bufferView": 1,
      "byteOffset": 4774208,
      "componentType": 5126,
      "count": 65532,
      "max": [
        0.9997559785842896,
        0.9821779727935791
      ],
      "min": [
        0.09497100114822388,
        0.01269499957561493
      ],
      "type": "VEC2"
    },
    {
      "bufferView": 0,
      "byteOffset": 9559956,
      "componentType": 5125,
      "count": 291555,
      "type": "SCALAR"
    },
    {
      "bufferView": 2,
      "byteOffset": 15895392,
      "componentType": 5126,
      "count": 65532,
      "max": [
        0.39007601141929626,
        0.4943540096282959,
        0.6174929738044739
      ],
      "min": [
        -0.2929080128669739,
        -0.2682799994945526,
        0.004149999935179949
      ],
      "type": "VEC3"
    },
    {
      "bufferView": 2,
      "byteOffset": 16681776,
      "componentType": 5126,
      "count": 65532,
      "max": [
        0.9999824166297913,
        1.0,
        1.0
      ],
      "min": [
        -0.9989873766899109,
        -1.0,
        -0.9999811053276062
      ],
      "type": "VEC3"
    },
    {
      "bufferView": 1,
      "byteOffset": 5298464,
      "componentType": 5126,
      "count": 65532,
      "max": [
        0.9946290254592896,
        0.9887700080871582
      ],
      "min": [
        0.00024399999529123306,
        0.004395000170916319
      ],
      "type": "VEC2"
    },
    {
      "bufferView": 0,
      "byteOffset": 10726176,
      "componentType": 5125,
      "count": 291918,
      "type": "SCALAR"
    },
    {
      "bufferView": 2,
      "byteOffset": 17468160,
      "componentType": 5126,
      "count": 7421,
      "max": [
        -0.07907900214195251,
        -0.0820389986038208,
        0.4550020098686218
      ],
      "min": [
        -0.35781899094581604,
        -0.3785710036754608,
        0.0008239999879151583
      ],
      "type": "VEC3"
    },
    {
      "bufferView": 2,
      "byteOffset": 17557212,
      "componentType": 5126,
      "count": 7421,
      "max": [
        0.9891577363014221,
        0.6427804827690125,
        0.7233124375343323
      ],
      "min": [
        -0.9922375082969666,
        -0.8537746071815491,
        -0.9999573826789856
      ],
      "type": "VEC3"
    },
    {
      "bufferView": 1,
      "byteOffset": 5822720,
      "componentType": 5126,
      "count": 7421,
      "max": [
        0.9614260196685791,
        0.9619140028953552
      ],
      "min": [
        0.11206100136041641,
        0.18872100114822388
      ],
      "type": "VEC2"
    },
    {
      "bufferView": 0,
      "byteOffset": 11893848,
      "componentType": 5125,
      "count": 26802,
      "type": "SCALAR"
    }
  ],
  "asset": {
    "extras": {
      "author": "FariyaK (https://sketchfab.com/FariyaK)",
      "license": "CC-BY-4.0 (http://creativecommons.org/licenses/by/4.0/)",
      "source": "https://sketchfab.com/3d-models/british-era-teacup-03a25fdeac954cbea688656aed204b27",
      "title": "British-era teacup"
    },
    "generator": "Sketchfab-16.82.0",
    "version": "2.0"
  },
  "bufferViews": [
    {
      "buffer": 0,
      "byteLength": 12001056,
      "name": "floatBufferViews",
      "target": 34963
    },
    {
      "buffer": 0,
      "byteLength": 5882088,
      "byteOffset": 12001056,
      "byteStride": 8,
      "name": "floatBufferViews",
      "target": 34962
    },
    {
      "buffer": 0,
      "byteLength": 17646264,
      "byteOffset": 17883144,
      "byteStride": 12,
      "name": "floatBufferViews",
      "target": 34962
    }
  ],
  "buffers": [
    {
      "byteLength": 35529408,
      "uri": "scene.bin"
    }
  ],
  "images": [
    {
      "uri": "textures/tripo_mat_28dfcd1c-1c7a-45ba-a44c-2c378a776e18_baseColor.jpeg"
    },
    {
      "uri": "textures/tripo_mat_28dfcd1c-1c7a-45ba-a44c-2c378a776e18_metallicRoughness.png"
    }
  ],
  "materials": [
    {
      "doubleSided": true,
      "name": "tripo_mat_28dfcd1c-1c7a-45ba-a44c-2c378a776e18",
      "pbrMetallicRoughness": {
        "baseColorTexture": {
          "index": 0
        },
        "metallicRoughnessTexture": {
          "index": 1
        },
        "roughnessFactor": 0.6
      }
    }
  ],
  "meshes": [
    {
      "name": "Object_0",
      "primitives": [
        {
          "attributes": {
            "NORMAL": 1,
            "POSITION": 0,
            "TEXCOORD_0": 2
          },
          "indices": 3,
          "material": 0,
          "mode": 4
        }
      ]
    },
    {
      "name": "Object_1",
      "primitives": [
        {
          "attributes": {
            "NORMAL": 5,
            "POSITION": 4,
            "TEXCOORD_0": 6
          },
          "indices": 7,
          "material": 0,
          "mode": 4
        }
      ]
    },
    {
      "name": "Object_2",
      "primitives": [
        {
          "attributes": {
            "NORMAL": 9,
            "POSITION": 8,
            "TEXCOORD_0": 10
          },
          "indices": 11,
          "material": 0,
          "mode": 4
        }
      ]
    },
    {
      "name": "Object_3",
      "primitives": [
        {
          "attributes": {
            "NORMAL": 13,
            "POSITION": 12,
            "TEXCOORD_0": 14
          },
          "indices": 15,
          "material": 0,
          "mode": 4
        }
      ]
    },
    {
      "name": "Object_4",
      "primitives": [
        {
          "attributes": {
            "NORMAL": 17,
            "POSITION": 16,
            "TEXCOORD_0": 18
          },
          "indices": 19,
          "material": 0,
          "mode": 4
        }
      ]
    },
    {
      "name": "Object_5",
      "primitives": [
        {
          "attributes": {
            "NORMAL": 21,
            "POSITION": 20,
            "TEXCOORD_0": 22
          },
          "indices": 23,
          "material": 0,
          "mode": 4
        }
      ]
    },
    {
      "name": "Object_6",
      "primitives": [
        {
          "attributes": {
            "NORMAL": 25,
            "POSITION": 24,
            "TEXCOORD_0": 26
          },
          "indices": 27,
          "material": 0,
          "mode": 4
        }
      ]
    },
    {
      "name": "Object_7",
      "primitives": [
        {
          "attributes": {
            "NORMAL": 29,
            "POSITION": 28,
            "TEXCOORD_0": 30
          },
          "indices": 31,
          "material": 0,
          "mode": 4
        }
      ]
    },
    {
      "name": "Object_8",
      "primitives": [
        {
          "attributes": {
            "NORMAL": 33,
            "POSITION": 32,
            "TEXCOORD_0": 34
          },
          "indices": 35,
          "material": 0,
          "mode": 4
        }
      ]
    },
    {
      "name": "Object_9",
      "primitives": [
        {
          "attributes": {
            "NORMAL": 37,
            "POSITION": 36,
            "TEXCOORD_0": 38
          },
          "indices": 39,
          "material": 0,
          "mode": 4
        }
      ]
    },
    {
      "name": "Object_10",
      "primitives": [
        {
          "attributes": {
            "NORMAL": 41,
            "POSITION": 40,
            "TEXCOORD_0": 42
          },
          "indices": 43,
          "material": 0,
          "mode": 4
        }
      ]
    },
    {
      "name": "Object_11",
      "primitives": [
        {
          "attributes": {
            "NORMAL": 45,
            "POSITION": 44,
            "TEXCOORD_0": 46
          },
          "indices": 47,
          "material": 0,
          "mode": 4
        }
      ]
    },
    {
      "name": "Object_12",
      "primitives": [
        {
          "attributes": {
            "NORMAL": 49,
            "POSITION": 48,
            "TEXCOORD_0": 50
          },
          "indices": 51,
          "material": 0,
          "mode": 4
        }
      ]
    }
  ],
  "nodes": [
    {
      "children": [
        1
      ],
      "matrix": [
        1.0,
        0.0,
        0.0,
        0.0,
        0.0,
        2.220446049250313e-16,
        -1.0,
        0.0,
        0.0,
        1.0,
        2.220446049250313e-16,
        0.0,
        0.0,
        0.0,
        0.0,
        1.0
      ],
      "name": "Sketchfab_model"
    },
    {
      "children": [
        2,
        3,
        4,
        5,
        6,
        7,
        8,
        9,
        10,
        11,
        12,
        13,
        14
      ],
      "name": "tripo_convert_28dfcd1c-1c7a-45ba-a44c-2c378a776e18.obj.cleaner.materialmerger.gles"
    },
    {
      "mesh": 0,
      "name": "Object_2"
    },
    {
      "mesh": 1,
      "name": "Object_3"
    },
    {
      "mesh": 2,
      "name": "Object_4"
    },
    {
      "mesh": 3,
      "name": "Object_5"
    },
    {
      "mesh": 4,
      "name": "Object_6"
    },
    {
      "mesh": 5,
      "name": "Object_7"
    },
    {
      "mesh": 6,
      "name": "Object_8"
    },
    {
      "mesh": 7,
      "name": "Object_9"
    },
    {
      "mesh": 8,
      "name": "Object_10"
    },
    {
      "mesh": 9,
      "name": "Object_11"
    },
    {
      "mesh": 10,
      "name": "Object_12"
    },
    {
      "mesh": 11,
      "name": "Object_13"
    },
    {
      "mesh": 12,
      "name": "Object_14"
    }
  ],
  "samplers": [
    {
      "magFilter": 9729,
      "minFilter": 9987,
      "wrapS": 10497,
      "wrapT": 10497
    }
  ],
  "scene": 0,
  "scenes": [
    {
      "name": "Sketchfab_Scene",
      "nodes": [
        0
      ]
    }
  ],
  "textures": [
    {
      "sampler": 0,
      "source": 0
    },
    {
      "sampler": 0,
      "source": 1
    }
  ]
}
