{
  "accessors": [
    {
      "bufferView": 2,
      "componentType": 5126,
      "count": 65532,
      "max": [
        63.673545837402344,
        54.8765754699707,
        64.1684799194336
      ],
      "min": [
        -50.89293670654297,
        -48.27869415283203,
        11.358528137207031
      ],
      "type": "VEC3"
    },
    {
      "bufferView": 2,
      "byteOffset": 786384,
      "componentType": 5126,
      "count": 65532,
      "max": [
        0.9696394205093384,
        0.9236047863960266,
        0.9999998807907104
      ],
      "min": [
        -0.9982747435569763,
        -0.9983571767807007,
        -0.5642048716545105
      ],
      "type": "VEC3"
    },
    {
      "bufferView": 1,
      "componentType": 5126,
      "count": 65532,
      "max": [
        0.8220149874687195,
        0.9293509721755981
      ],
      "min": [
        0.0018570000538602471,
        0.0019920000340789557
      ],
      "type": "VEC2"
    },
    {
      "bufferView": 0,
      "componentType": 5125,
      "count": 362958,
      "type": "SCALAR"
    },
    {
      "bufferView": 2,
      "byteOffset": 1572768,
      "componentType": 5126,
      "count": 65532,
      "max": [
        48.18264389038086,
        49.7155647277832,
        63.91475296020508
      ],
      "min": [
        -43.46067810058594,
        -42.40921401977539,
        9.891926765441895
      ],
      "type": "VEC3"
    },
    {
      "bufferView": 2,
      "byteOffset": 2359152,
      "componentType": 5126,
      "count": 65532,
      "max": [
        0.9309341907501221,
        0.9655361175537109,
        1.0
      ],
      "min": [
        -0.9265969395637512,
        -0.9759166240692139,
        0.20595252513885498
      ],
      "type": "VEC3"
    },
    {
      "bufferView": 1,
      "byteOffset": 524256,
      "componentType": 5126,
      "count": 65532,
      "max": [
        0.9303560256958008,
        0.9888060092926025
      ],
      "min": [
        0.058361001312732697,
        0.023857999593019485
      ],
      "type": "VEC2"
    },
    {
      "bufferView": 0,
      "byteOffset": 1451832,
      "componentType": 5125,
      "count": 366966,
      "type": "SCALAR"
    },
    {
      "bufferView": 2,
      "byteOffset": 3145536,
      "componentType": 5126,
      "count": 65532,
      "max": [
        47.46440124511719,
        54.12684631347656,
        63.73081588745117
      ],
      "min": [
        -47.725555419921875,
        -47.26943588256836,
        11.599447250366211
      ],
      "type": "VEC3"
    },
    {
      "bufferView": 2,
      "byteOffset": 3931920,
      "componentType": 5126,
      "count": 65532,
      "max": [
        0.9611367583274841,
        0.969196617603302,
        0.9999972581863403
      ],
      "min": [
        -0.9725909233093262,
        -0.9448802471160889,
        0.16604924201965332
      ],
      "type": "VEC3"
    },
    {
      "bufferView": 1,
      "byteOffset": 1048512,
      "componentType": 5126,
      "count": 65532,
      "max": [
        0.9275259971618652,
        0.9966949820518494
      ],
      "min": [
        0.02953599952161312,
        0.0059529999271035194
      ],
      "type": "VEC2"
    },
    {
      "bufferView": 0,
      "byteOffset": 2919696,
      "componentType": 5125,
      "count": 363531,
      "type": "SCALAR"
    },
    {
      "bufferView": 2,
      "byteOffset": 4718304,
      "componentType": 5126,
      "count": 65532,
      "max": [
        72.50078582763672,
        50.645050048828125,
        64.15474700927734
      ],
      "min": [
        -33.95262145996094,
        -47.738372802734375,
        5.320093154907227
      ],
      "type": "VEC3"
    },
    {
      "bufferView": 2,
      "byteOffset": 5504688,
      "componentType": 5126,
      "count": 65532,
      "max": [
        0.9999842047691345,
        0.9646902084350586,
        0.9999963045120239
      ],
      "min": [
        -0.9704799056053162,
        -0.9999607801437378,
        -0.8740333318710327
      ],
      "type": "VEC3"
    },
    {
      "bufferView": 1,
      "byteOffset": 1572768,
      "componentType": 5126,
      "count": 65532,
      "max": [
        0.9302970170974731,
        0.9789699912071228
      ],
      "min": [
        0.025630999356508255,
        0.0019920000340789557
      ],
      "type": "VEC2"
    },
    {
      "bufferView": 0,
      "byteOffset": 4373820,
      "componentType": 5125,
      "count": 352923,
      "type": "SCALAR"
    },
    {
      "bufferView": 2,
      "byteOffset": 6291072,
      "componentType": 5126,
      "count": 65532,
      "max": [
        75.75016021728516,
        54.64404296875,
        64.16475677490234
      ],
      "min": [
        -50.9703369140625,
        -48.027286529541016,
        1.9988110065460205
      ],
      "type": "VEC3"
    },
    {
      "bufferView": 2,
      "byteOffset": 7077456,
      "componentType": 5126,
      "count": 65532,
      "max": [
        0.9999423027038574,
        0.9999274015426636,
        0.9999985694885254
      ],
      "min": [
        -0.9999023675918579,
        -0.9909996390342712,
        -0.9999998807907104
      ],
      "type": "VEC3"
    },
    {
      "bufferView": 1,
      "byteOffset": 2097024,
      "componentType": 5126,
      "count": 65532,
      "max": [
        0.9303560256958008,
        0.9980080127716064
      ],
      "min": [
        0.0018570000538602471,
        0.003131000092253089
      ],
      "type": "VEC2"
    },
    {
      "bufferView": 0,
      "byteOffset": 5785512,
      "componentType": 5125,
      "count": 268803,
      "type": "SCALAR"
    },
    {
      "bufferView": 2,
      "byteOffset": 7863840,
      "componentType": 5126,
      "count": 65532,
      "max": [
        72.70867156982422,
        49.28355407714844,
        58.54643249511719
      ],
      "min": [
        -44.48672866821289,
        -26.06820297241211,
        1.9888999462127686
      ],
      "type": "VEC3"
    },
    {
      "bufferView": 2,
      "byteOffset": 8650224,
      "componentType": 5126,
      "count": 65532,
      "max": [
        0.9296455979347229,
        0.9418418407440186,
        0.7164294123649597
      ],
      "min": [
        -0.9634554982185364,
        -0.9999979138374329,
        -0.9999999403953552
      ],
      "type": "VEC3"
    },
    {
      "bufferView": 1,
      "byteOffset": 2621280,
      "componentType": 5126,
      "count": 65532,
      "max": [
        0.9298269748687744,
        0.983879029750824
      ],
      "min": [
        0.0019099999917671084,
        0.05905099958181381
      ],
      "type": "VEC2"
    },
    {
      "bufferView": 0,
      "byteOffset": 6860724,
      "componentType": 5125,
      "count": 352815,
      "type": "SCALAR"
    },
    {
      "bufferView": 2,
      "byteOffset": 9436608,
      "componentType": 5126,
      "count": 65532,
      "max": [
        75.27861785888672,
        44.74055862426758,
        63.36494445800781
      ],
      "min": [
        -47.1971321105957,
        -45.87200164794922,
        2.0811080932617188
      ],
      "type": "VEC3"
    },
    {
      "bufferView": 2,
      "byteOffset": 10222992,
      "componentType": 5126,
      "count": 65532,
      "max": [
        0.9953685402870178,
        0.9999958872795105,
        0.8485499024391174
      ],
      "min": [
        -0.9663647413253784,
        -0.9999898672103882,
        -0.9999990463256836
      ],
      "type": "VEC3"
    },
    {
      "bufferView": 1,
      "byteOffset": 3145536,
      "componentType": 5126,
      "count": 65532,
      "max": [
        0.9303560256958008,
        0.9739459753036499
      ],
      "min": [
        0.006062000058591366,
        0.05735199898481369
      ],
      "type": "VEC2"
    },
    {
      "bufferView": 0,
      "byteOffset": 8271984,
      "componentType": 5125,
      "count": 357186,
      "type": "SCALAR"
    },
    {
      "bufferView": 2,
      "byteOffset": 11009376,
      "componentType": 5126,
      "count": 65532,
      "max": [
        72.78560638427734,
        55.020042419433594,
        63.157535552978516
      ],
      "min": [
        -49.51634216308594,
        -48.47543716430664,
        2.0564279556274414
      ],
      "type": "VEC3"
    },
    {
      "bufferView": 2,
      "byteOffset": 11795760,
      "componentType": 5126,
      "count": 65532,
      "max": [
        0.9877803325653076,
        0.9998672008514404,
        0.8060075044631958
      ],
      "min": [
        -0.9673764705657959,
        -0.9998536109924316,
        -0.9999993443489075
      ],
      "type": "VEC3"
    },
    {
      "bufferView": 1,
      "byteOffset": 3669792,
      "componentType": 5126,
      "count": 65532,
      "max": [
        0.9278630018234253,
        0.992160975933075
      ],
      "min": [
        0.0033599999733269215,
        0.0019920000340789557
      ],
      "type": "VEC2"
    },
    {
      "bufferView": 0,
      "byteOffset": 9700728,
      "componentType": 5125,
      "count": 356709,
      "type": "SCALAR"
    },
    {
      "bufferView": 2,
      "byteOffset": 12582144,
      "componentType": 5126,
      "count": 62858,
      "max": [
        75.69063568115234,
        54.98871612548828,
        63.77175521850586
      ],
      "min": [
        -50.9489631652832,
        -48.37717819213867,
        1.997102975845337
      ],
      "type": "VEC3"
    },
    {
      "bufferView": 2,
      "byteOffset": 13336440,
      "componentType": 5126,
      "count": 62858,
      "max": [
        0.9997273683547974,
        0.9997939467430115,
        0.9087610840797424
      ],
      "min": [
        -0.9984180331230164,
        -0.9999979138374329,
        -0.9999998807907104
      ],
      "type": "VEC3"
    },
    {
      "bufferView": 1,
      "byteOffset": 4194048,
      "componentType": 5126,
      "count": 62858,
      "max": [
        0.9303560256958008,
        0.9980040192604065
      ],
      "min": [
        0.0018570000538602471,
        0.002650999929755926
      ],
      "type": "VEC2"
    },
    {
      "bufferView": 0,
      "byteOffset": 11127564,
      "componentType": 5125,
      "count": 242799,
      "type": "SCALAR"
    }
  ],
  "asset": {
    "extras": {
      "author": "IUPUI University Library (https://sketchfab.com/iupuiul)",
      "license": "CC-BY-4.0 (http://creativecommons.org/licenses/by/4.0/)",
      "source": "https://sketchfab.com/3d-models/teacup-85ee25e6bd364936ac31f1df9360ae98",
      "title": "Teacup"
    },
    "generator": "Sketchfab-12.68.0",
    "version": "2.0"
  },
  "bufferViews": [
    {
      "buffer": 0,
      "byteLength": 12098760,
      "name": "floatBufferViews",
      "target": 34963
    },
    {
      "buffer": 0,
      "byteLength": 4696912,
      "byteOffset": 12098760,
      "byteStride": 8,
      "name": "floatBufferViews",
      "target": 34962
    },
    {
      "buffer": 0,
      "byteLength": 14090736,
      "byteOffset": 16795672,
      "byteStride": 12,
      "name": "floatBufferViews",
      "target": 34962
    }
  ],
  "buffers": [
    {
      "byteLength": 30886408,
      "uri": "scene.bin"
    }
  ],
  "images": [
    {
      "uri": "textures/material_0_baseColor.png"
    }
  ],
  "materials": [
    {
      "doubleSided": true,
      "name": "material_0",
      "pbrMetallicRoughness": {
        "baseColorTexture": {
          "index": 0
        },
        "metallicFactor": 0.0,
        "roughnessFactor": 0.19578168464429455
      }
    }
  ],
  "meshes": [
    {
      "name": "Object_0",
      "primitives": [
        {
          "attributes": {
            "NORMAL": 1,
            "POSITION": 0,
            "TEXCOORD_0": 2
          },
          "indices": 3,
          "material": 0,
          "mode": 4
        }
      ]
    },
    {
      "name": "Object_1",
      "primitives": [
        {
          "attributes": {
            "NORMAL": 5,
            "POSITION": 4,
            "TEXCOORD_0": 6
          },
          "indices": 7,
          "material": 0,
          "mode": 4
        }
      ]
    },
    {
      "name": "Object_2",
      "primitives": [
        {
          "attributes": {
            "NORMAL": 9,
            "POSITION": 8,
            "TEXCOORD_0": 10
          },
          "indices": 11,
          "material": 0,
          "mode": 4
        }
      ]
    },
    {
      "name": "Object_3",
      "primitives": [
        {
          "attributes": {
            "NORMAL": 13,
            "POSITION": 12,
            "TEXCOORD_0": 14
          },
          "indices": 15,
          "material": 0,
          "mode": 4
        }
      ]
    },
    {
      "name": "Object_4",
      "primitives": [
        {
          "attributes": {
            "NORMAL": 17,
            "POSITION": 16,
            "TEXCOORD_0": 18
          },
          "indices": 19,
          "material": 0,
          "mode": 4
        }
      ]
    },
    {
      "name": "Object_5",
      "primitives": [
        {
          "attributes": {
            "NORMAL": 21,
            "POSITION": 20,
            "TEXCOORD_0": 22
          },
          "indices": 23,
          "material": 0,
          "mode": 4
        }
      ]
    },
    {
      "name": "Object_6",
      "primitives": [
        {
          "attributes": {
            "NORMAL": 25,
            "POSITION": 24,
            "TEXCOORD_0": 26
          },
          "indices": 27,
          "material": 0,
          "mode": 4
        }
      ]
    },
    {
      "name": "Object_7",
      "primitives": [
        {
          "attributes": {
            "NORMAL": 29,
            "POSITION": 28,
            "TEXCOORD_0": 30
          },
          "indices": 31,
          "material": 0,
          "mode": 4
        }
      ]
    },
    {
      "name": "Object_8",
      "primitives": [
        {
          "attributes": {
            "NORMAL": 33,
            "POSITION": 32,
            "TEXCOORD_0": 34
          },
          "indices": 35,
          "material": 0,
          "mode": 4
        }
      ]
    }
  ],
  "nodes": [
    {
      "children": [
        1
      ],
      "matrix": [
        1.0,
        0.0,
        0.0,
        0.0,
        0.0,
        2.220446049250313e-16,
        -1.0,
        0.0,
        0.0,
        1.0,
        2.220446049250313e-16,
        0.0,
        0.0,
        0.0,
        0.0,
        1.0
      ],
      "name": "Sketchfab_model"
    },
    {
      "children": [
        2,
        3,
        4,
        5,
        6,
        7,
        8,
        9,
        10
      ],
      "name": "teacup_HR_Geometry.obj.cleaner.materialmerger.gles"
    },
    {
      "mesh": 0,
      "name": "Object_2"
    },
    {
      "mesh": 1,
      "name": "Object_3"
    },
    {
      "mesh": 2,
      "name": "Object_4"
    },
    {
      "mesh": 3,
      "name": "Object_5"
    },
    {
      "mesh": 4,
      "name": "Object_6"
    },
    {
      "mesh": 5,
      "name": "Object_7"
    },
    {
      "mesh": 6,
      "name": "Object_8"
    },
    {
      "mesh": 7,
      "name": "Object_9"
    },
    {
      "mesh": 8,
      "name": "Object_10"
    }
  ],
  "samplers": [
    {
      "magFilter": 9729,
      "minFilter": 9987,
      "wrapS": 10497,
      "wrapT": 10497
    }
  ],
  "scene": 0,
  "scenes": [
    {
      "name": "Sketchfab_Scene",
      "nodes": [
        0
      ]
    }
  ],
  "textures": [
    {
      "sampler": 0,
      "source": 0
    }
  ]
}
