{
  "accessors": [
    {
      "bufferView": 2,
      "componentType": 5126,
      "count": 65532,
      "max": [
        5.7825212478637695,
        1.54642915725708,
        2.9081473350524902
      ],
      "min": [
        -4.441855430603027,
        0.09769883006811142,
        -3.98232364654541
      ],
      "type": "VEC3"
    },
    {
      "bufferView": 2,
      "byteOffset": 786384,
      "componentType": 5126,
      "count": 65532,
      "max": [
        0.9998933672904968,
        0.999873161315918,
        0.9999480247497559
      ],
      "min": [
        -0.9998102188110352,
        -0.9999611973762512,
        -0.9999476671218872
      ],
      "type": "VEC3"
    },
    {
      "bufferView": 1,
      "componentType": 5126,
      "count": 65532,
      "max": [
        0.9363488554954529,
        0.9740689992904663
      ],
      "min": [
        -0.09321629256010056,
        0.39892005920410156
      ],
      "type": "VEC2"
    },
    {
      "bufferView": 0,
      "componentType": 5125,
      "count": 347748,
      "type": "SCALAR"
    },
    {
      "bufferView": 2,
      "byteOffset": 1572768,
      "componentType": 5126,
      "count": 65532,
      "max": [
        2.4532294273376465,
        4.444456100463867,
        5.2436017990112305
      ],
      "min": [
        -3.5174317359924316,
        -0.0031142125371843576,
        -4.55495548248291
      ],
      "type": "VEC3"
    },
    {
      "bufferView": 2,
      "byteOffset": 2359152,
      "componentType": 5126,
      "count": 65532,
      "max": [
        0.9997621774673462,
        0.9999998807907104,
        0.9998553395271301
      ],
      "min": [
        -0.9999216794967651,
        -0.9999997615814209,
        -0.9998536109924316
      ],
      "type": "VEC3"
    },
    {
      "bufferView": 1,
      "byteOffset": 524256,
      "componentType": 5126,
      "count": 65532,
      "max": [
        0.9492387771606445,
        0.9853786826133728
      ],
      "min": [
        -0.09321629256010056,
        0.04129230976104736
      ],
      "type": "VEC2"
    },
    {
      "bufferView": 0,
      "byteOffset": 1390992,
      "componentType": 5125,
      "count": 350025,
      "type": "SCALAR"
    },
    {
      "bufferView": 2,
      "byteOffset": 3145536,
      "componentType": 5126,
      "count": 65533,
      "max": [
        5.78294563293457,
        4.444457530975342,
        2.6801767349243164
      ],
      "min": [
        -4.430614471435547,
        0.09769883006811142,
        -4.557353496551514
      ],
      "type": "VEC3"
    },
    {
      "bufferView": 2,
      "byteOffset": 3931932,
      "componentType": 5126,
      "count": 65533,
      "max": [
        0.9999560713768005,
        0.9999611377716064,
        0.9998967051506042
      ],
      "min": [
        -0.9998930096626282,
        -0.9999611973762512,
        -0.9999379515647888
      ],
      "type": "VEC3"
    },
    {
      "bufferView": 1,
      "byteOffset": 1048512,
      "componentType": 5126,
      "count": 65533,
      "max": [
        0.9394635558128357,
        0.9790472984313965
      ],
      "min": [
        -0.10532810539007187,
        0.39892005920410156
      ],
      "type": "VEC2"
    },
    {
      "bufferView": 0,
      "byteOffset": 2791092,
      "componentType": 5125,
      "count": 321837,
      "type": "SCALAR"
    },
    {
      "bufferView": 2,
      "byteOffset": 4718328,
      "componentType": 5126,
      "count": 65532,
      "max": [
        6.80531644821167,
        4.444458484649658,
        6.144969940185547
      ],
      "min": [
        -5.459719181060791,
        -0.06387341022491455,
        -6.120063781738281
      ],
      "type": "VEC3"
    },
    {
      "bufferView": 2,
      "byteOffset": 5504712,
      "componentType": 5126,
      "count": 65532,
      "max": [
        1.0,
        1.0,
        1.0
      ],
      "min": [
        -1.0,
        -1.0,
        -1.0
      ],
      "type": "VEC3"
    },
    {
      "bufferView": 1,
      "byteOffset": 1572776,
      "componentType": 5126,
      "count": 65532,
      "max": [
        0.9503884315490723,
        0.9888441562652588
      ],
      "min": [
        -0.10532810539007187,
        0.042131781578063965
      ],
      "type": "VEC2"
    },
    {
      "bufferView": 0,
      "byteOffset": 4078440,
      "componentType": 5125,
      "count": 284169,
      "type": "SCALAR"
    },
    {
      "bufferView": 2,
      "byteOffset": 6291096,
      "componentType": 5126,
      "count": 11655,
      "max": [
        1.9186887741088867,
        1.546428918838501,
        4.72462272644043
      ],
      "min": [
        -3.488985061645508,
        0.09769883006811142,
        -4.555379867553711
      ],
      "type": "VEC3"
    },
    {
      "bufferView": 2,
      "byteOffset": 6430956,
      "componentType": 5126,
      "count": 11655,
      "max": [
        0.9729490876197815,
        0.9999610781669617,
        0.9998355507850647
      ],
      "min": [
        -0.9901459217071533,
        -0.9999611973762512,
        -0.9994962811470032
      ],
      "type": "VEC3"
    },
    {
      "bufferView": 1,
      "byteOffset": 2097032,
      "componentType": 5126,
      "count": 11655,
      "max": [
        0.9394635558128357,
        0.9732464551925659
      ],
      "min": [
        -0.03400138020515442,
        0.4088730216026306
      ],
      "type": "VEC2"
    },
    {
      "bufferView": 0,
      "byteOffset": 5215116,
      "componentType": 5125,
      "count": 40947,
      "type": "SCALAR"
    },
    {
      "bufferView": 2,
      "byteOffset": 6570816,
      "componentType": 5126,
      "count": 366,
      "max": [
        5.158764362335205,
        2.686110019683838,
        4.62693977355957
      ],
      "min": [
        -3.763046979904175,
        1.3385977745056152,
        -3.9516983032226563
      ],
      "type": "VEC3"
    },
    {
      "bufferView": 2,
      "byteOffset": 6575208,
      "componentType": 5126,
      "count": 366,
      "max": [
        0.0,
        1.0,
        3.153117404508521e-06
      ],
      "min": [
        0.0,
        1.0,
        -8.784209967416245e-06
      ],
      "type": "VEC3"
    },
    {
      "bufferView": 1,
      "byteOffset": 2190272,
      "componentType": 5126,
      "count": 366,
      "max": [
        1.0,
        1.0
      ],
      "min": [
        0.0,
        0.0
      ],
      "type": "VEC2"
    },
    {
      "bufferView": 0,
      "byteOffset": 5378904,
      "componentType": 5125,
      "count": 1728,
      "type": "SCALAR"
    }
  ],
  "asset": {
    "extras": {
      "author": "Sami Ullah (https://sketchfab.com/mascotboy)",
      "license": "CC-BY-4.0 (http://creativecommons.org/licenses/by/4.0/)",
      "source": "https://sketchfab.com/3d-models/teapot-and-cups-teapot-set-3d-model-b2efca342789416db1b236b4dda7fce8",
      "title": "Teapot and Cups, Teapot set 3D model"
    },
    "generator": "Sketchfab-17.2.0",
    "version": "2.0"
  },
  "bufferViews": [
    {
      "buffer": 0,
      "byteLength": 5385816,
      "name": "floatBufferViews",
      "target": 34963
    },
    {
      "buffer": 0,
      "byteLength": 2193200,
      "byteOffset": 5385816,
      "byteStride": 8,
      "name": "floatBufferViews",
      "target": 34962
    },
    {
      "buffer": 0,
      "byteLength": 6579600,
      "byteOffset": 7579016,
      "byteStride": 12,
      "name": "floatBufferViews",
      "target": 34962
    }
  ],
  "buffers": [
    {
      "byteLength": 14158616,
      "uri": "scene.bin"
    }
  ],
  "extensionsUsed": [
    "KHR_materials_specular"
  ],
  "images": [
    {
      "uri": "textures/phong1_baseColor.jpeg"
    },
    {
      "uri": "textures/phong1_specularf0.png"
    }
  ],
  "materials": [
    {
      "doubleSided": true,
      "extensions": {
        "KHR_materials_specular": {
          "specularColorFactor": [
            1.0,
            1.0,
            1.0
          ],
          "specularFactor": 1.0,
          "specularTexture": {
            "index": 1
          }
        }
      },
      "name": "phong1",
      "pbrMetallicRoughness": {
        "baseColorTexture": {
          "index": 0
        },
        "metallicFactor": 0.0,
        "roughnessFactor": 0.24228645268252244
      }
    },
    {
      "doubleSided": true,
      "extensions": {
        "KHR_materials_specular": {
          "specularColorFactor": [
            1.0,
            1.0,
            1.0
          ],
          "specularFactor": 1.0,
          "specularTexture": {
            "index": 1
          }
        }
      },
      "name": "phong4",
      "pbrMetallicRoughness": {
        "baseColorFactor": [
          0.775209617965722,
          0.35519256757128004,
          0.09021278035189165,
          1.0
        ],
        "metallicFactor": 0.0,
        "roughnessFactor": 0.0933305701503091
      }
    }
  ],
  "meshes": [
    {
      "name": "polySurface52_phong1_0",
      "primitives": [
        {
          "attributes": {
            "NORMAL": 1,
            "POSITION": 0,
            "TEXCOORD_0": 2
          },
          "indices": 3,
          "material": 0,
          "mode": 4
        }
      ]
    },
    {
      "name": "polySurface52_phong1_0",
      "primitives": [
        {
          "attributes": {
            "NORMAL": 5,
            "POSITION": 4,
            "TEXCOORD_0": 6
          },
          "indices": 7,
          "material": 0,
          "mode": 4
        }
      ]
    },
    {
      "name": "polySurface52_phong1_0",
      "primitives": [
        {
          "attributes": {
            "NORMAL": 9,
            "POSITION": 8,
            "TEXCOORD_0": 10
          },
          "indices": 11,
          "material": 0,
          "mode": 4
        }
      ]
    },
    {
      "name": "polySurface52_phong1_0",
      "primitives": [
        {
          "attributes": {
            "NORMAL": 13,
            "POSITION": 12,
            "TEXCOORD_0": 14
          },
          "indices": 15,
          "material": 0,
          "mode": 4
        }
      ]
    },
    {
      "name": "polySurface52_phong1_0",
      "primitives": [
        {
          "attributes": {
            "NORMAL": 17,
            "POSITION": 16,
            "TEXCOORD_0": 18
          },
          "indices": 19,
          "material": 0,
          "mode": 4
        }
      ]
    },
    {
      "name": "polySurface52_phong4_0",
      "primitives": [
        {
          "attributes": {
            "NORMAL": 21,
            "POSITION": 20,
            "TEXCOORD_0": 22
          },
          "indices": 23,
          "material": 1,
          "mode": 4
        }
      ]
    }
  ],
  "nodes": [
    {
      "children": [
        1
      ],
      "matrix": [
        1.0,
        0.0,
        0.0,
        0.0,
        0.0,
        2.220446049250313e-16,
        -1.0,
        0.0,
        0.0,
        1.0,
        2.220446049250313e-16,
        0.0,
        0.0,
        0.0,
        0.0,
        1.0
      ],
      "name": "Sketchfab_model"
    },
    {
      "children": [
        2
      ],
      "matrix": [
        0.009999999776482582,
        0.0,
        0.0,
        0.0,
        0.0,
        0.0,
        0.009999999776482582,
        0.0,
        0.0,
        -0.009999999776482582,
        0.0,
        0.0,
        0.0,
        0.0,
        0.0,
        1.0
      ],
      "name": "4f0317ac6e82449bb7870ccaaff518db.fbx"
    },
    {
      "children": [
        3,
        6,
        9
      ],
      "name": "RootNode"
    },
    {
      "children": [
        4
      ],
      "matrix": [
        1.0,
        0.0,
        0.0,
        0.0,
        0.0,
        1.0,
        0.0,
        0.0,
        0.0,
        0.0,
        1.0,
        0.0,
        -7.097383975982666,
        8.796323776245117,
        -3.4233195781707764,
        1.0
      ],
      "name": "pointLight1"
    },
    {
      "children": [
        5
      ],
      "matrix": [
        1.0,
        0.0,
        0.0,
        0.0,
        0.0,
        2.220446049250313e-16,
        1.0,
        0.0,
        0.0,
        -1.0,
        2.220446049250313e-16,
        0.0,
        0.0,
        0.0,
        0.0,
        1.0
      ],
      "name": "Object_4"
    },
    {
      "name": "Object_5"
    },
    {
      "children": [
        7
      ],
      "matrix": [
        1.0,
        0.0,
        0.0,
        0.0,
        0.0,
        1.0,
        0.0,
        0.0,
        0.0,
        0.0,
        1.0,
        0.0,
        9.346219062805176,
        -0.521448016166687,
        2.596104621887207,
        1.0
      ],
      "name": "ambientLight1"
    },
    {
      "children": [
        8
      ],
      "matrix": [
        1.0,
        0.0,
        0.0,
        0.0,
        0.0,
        2.220446049250313e-16,
        1.0,
        0.0,
        0.0,
        -1.0,
        2.220446049250313e-16,
        0.0,
        0.0,
        0.0,
        0.0,
        1.0
      ],
      "name": "Object_7"
    },
    {
      "name": "Object_8"
    },
    {
      "children": [
        10,
        11,
        12,
        13,
        14,
        15
      ],
      "name": "polySurface52"
    },
    {
      "mesh": 0,
      "name": "polySurface52_phong1_0"
    },
    {
      "mesh": 1,
      "name": "polySurface52_phong1_0"
    },
    {
      "mesh": 2,
      "name": "polySurface52_phong1_0"
    },
    {
      "mesh": 3,
      "name": "polySurface52_phong1_0"
    },
    {
      "mesh": 4,
      "name": "polySurface52_phong1_0"
    },
    {
      "mesh": 5,
      "name": "polySurface52_phong4_0"
    }
  ],
  "samplers": [
    {
      "magFilter": 9729,
      "minFilter": 9987,
      "wrapS": 10497,
      "wrapT": 10497
    }
  ],
  "scene": 0,
  "scenes": [
    {
      "name": "Sketchfab_Scene",
      "nodes": [
        0
      ]
    }
  ],
  "textures": [
    {
      "sampler": 0,
      "source": 0
    },
    {
      "sampler": 0,
      "source": 1
    }
  ]
}
