{
  "accessors": [
    {
      "bufferView": 2,
      "componentType": 5126,
      "count": 2080,
      "max": [
        0.04638148099184036,
        0.04638148099184036,
        0.21068567037582397
      ],
      "min": [
        -0.04638148099184036,
        -0.04638148099184036,
        -0.0021878061816096306
      ],
      "type": "VEC3"
    },
    {
      "bufferView": 2,
      "byteOffset": 24960,
      "componentType": 5126,
      "count": 2080,
      "max": [
        0.9997661709785461,
        0.9997661709785461,
        0.33000126481056213
      ],
      "min": [
        -0.9997662305831909,
        -0.9997661709785461,
        -1.0
      ],
      "type": "VEC3"
    },
    {
      "bufferView": 3,
      "componentType": 5126,
      "count": 2080,
      "max": [
        0.9989375472068787,
        0.9987764954566956,
        0.9997662305831909,
        1.0
      ],
      "min": [
        -0.9986815452575684,
        -0.9983500242233276,
        -0.8969617486000061,
        1.0
      ],
      "type": "VEC4"
    },
    {
      "bufferView": 1,
      "componentType": 5126,
      "count": 2080,
      "max": [
        1.0,
        0.9999999403953552
      ],
      "min": [
        0.0006482778117060661,
        0.0
      ],
      "type": "VEC2"
    },
    {
      "bufferView": 1,
      "byteOffset": 16640,
      "componentType": 5126,
      "count": 2080,
      "max": [
        1.0,
        0.9999999403953552
      ],
      "min": [
        0.0006482778117060661,
        0.0
      ],
      "type": "VEC2"
    },
    {
      "bufferView": 1,
      "byteOffset": 33280,
      "componentType": 5126,
      "count": 2080,
      "max": [
        1.0,
        0.9999999403953552
      ],
      "min": [
        0.0006482778117060661,
        0.0
      ],
      "type": "VEC2"
    },
    {
      "bufferView": 0,
      "componentType": 5125,
      "count": 11712,
      "type": "SCALAR"
    },
    {
      "bufferView": 2,
      "byteOffset": 49920,
      "componentType": 5126,
      "count": 2860,
      "max": [
        0.03270769864320755,
        0.03270769864320755,
        0.37513384222984314
      ],
      "min": [
        -0.03270769864320755,
        -0.03270769864320755,
        0.21068567037582397
      ],
      "type": "VEC3"
    },
    {
      "bufferView": 2,
      "byteOffset": 84240,
      "componentType": 5126,
      "count": 2860,
      "max": [
        0.999967098236084,
        0.9999183416366577,
        0.9998569488525391
      ],
      "min": [
        -0.9996762871742249,
        -0.9999144673347473,
        -0.6796101927757263
      ],
      "type": "VEC3"
    },
    {
      "bufferView": 3,
      "byteOffset": 33280,
      "componentType": 5126,
      "count": 2860,
      "max": [
        0.9999993443489075,
        0.9999987483024597,
        0.19183839857578278,
        1.0
      ],
      "min": [
        -0.999976396560669,
        -0.9999969005584717,
        -0.970420241355896,
        1.0
      ],
      "type": "VEC4"
    },
    {
      "bufferView": 1,
      "byteOffset": 49920,
      "componentType": 5126,
      "count": 2860,
      "max": [
        0.9985760450363159,
        0.9490641951560974
      ],
      "min": [
        0.001418877043761313,
        0.0014202051097527146
      ],
      "type": "VEC2"
    },
    {
      "bufferView": 1,
      "byteOffset": 72800,
      "componentType": 5126,
      "count": 2860,
      "max": [
        0.9985760450363159,
        0.9490641951560974
      ],
      "min": [
        0.001418877043761313,
        0.0014202051097527146
      ],
      "type": "VEC2"
    },
    {
      "bufferView": 1,
      "byteOffset": 95680,
      "componentType": 5126,
      "count": 2860,
      "max": [
        0.9985760450363159,
        0.9490641951560974
      ],
      "min": [
        0.001418877043761313,
        0.0014202051097527146
      ],
      "type": "VEC2"
    },
    {
      "bufferView": 0,
      "byteOffset": 46848,
      "componentType": 5125,
      "count": 15936,
      "type": "SCALAR"
    }
  ],
  "asset": {
    "extras": {
      "author": "Sirolalo (https://sketchfab.com/Sirolalo)",
      "license": "CC-BY-4.0 (http://creativecommons.org/licenses/by/4.0/)",
      "source": "https://sketchfab.com/3d-models/bottle-of-champagne-a3947c1c74484bc2940e60ffd2e84b9a",
      "title": "Bottle of Champagne"
    },
    "generator": "Sketchfab-14.64.0",
    "version": "2.0"
  },
  "bufferViews": [
    {
      "buffer": 0,
      "byteLength": 110592,
      "name": "floatBufferViews",
      "target": 34963
    },
    {
      "buffer": 0,
      "byteLength": 118560,
      "byteOffset": 110592,
      "byteStride": 8,
      "name": "floatBufferViews",
      "target": 34962
    },
    {
      "buffer": 0,
      "byteLength": 118560,
      "byteOffset": 229152,
      "byteStride": 12,
      "name": "floatBufferViews",
      "target": 34962
    },
    {
      "buffer": 0,
      "byteLength": 79040,
      "byteOffset": 347712,
      "byteStride": 16,
      "name": "floatBufferViews",
      "target": 34962
    }
  ],
  "buffers": [
    {
      "byteLength": 426752,
      "uri": "scene.bin"
    }
  ],
  "images": [
    {
      "uri": "textures/M_ChampagneBottleGlass_baseColor.png"
    },
    {
      "uri": "textures/M_ChampagneBottleGlass_metallicRoughness.png"
    },
    {
      "uri": "textures/M_ChampagneBottleGlass_normal.png"
    },
    {
      "uri": "textures/M_ChampagneSuit_baseColor.png"
    },
    {
      "uri": "textures/M_ChampagneSuit_metallicRoughness.png"
    },
    {
      "uri": "textures/M_ChampagneSuit_normal.png"
    }
  ],
  "materials": [
    {
      "alphaMode": "BLEND",
      "doubleSided": true,
      "name": "M_ChampagneBottleGlass",
      "normalTexture": {
        "index": 2
      },
      "pbrMetallicRoughness": {
        "baseColorTexture": {
          "index": 0
        },
        "metallicRoughnessTexture": {
          "index": 1
        }
      }
    },
    {
      "doubleSided": true,
      "name": "M_ChampagneSuit",
      "normalTexture": {
        "index": 5
      },
      "pbrMetallicRoughness": {
        "baseColorTexture": {
          "index": 3
        },
        "metallicRoughnessTexture": {
          "index": 4
        }
      }
    }
  ],
  "meshes": [
    {
      "name": "A_BottleChampagne_M_ChampagneBottleGlass_0",
      "primitives": [
        {
          "attributes": {
            "NORMAL": 1,
            "POSITION": 0,
            "TANGENT": 2,
            "TEXCOORD_0": 3,
            "TEXCOORD_1": 4,
            "TEXCOORD_2": 5
          },
          "indices": 6,
          "material": 0,
          "mode": 4
        }
      ]
    },
    {
      "name": "A_BottleChampagne_M_ChampagneSuit_0",
      "primitives": [
        {
          "attributes": {
            "NORMAL": 8,
            "POSITION": 7,
            "TANGENT": 9,
            "TEXCOORD_0": 10,
            "TEXCOORD_1": 11,
            "TEXCOORD_2": 12
          },
          "indices": 13,
          "material": 1,
          "mode": 4
        }
      ]
    }
  ],
  "nodes": [
    {
      "children": [
        1
      ],
      "matrix": [
        1.0,
        0.0,
        0.0,
        0.0,
        0.0,
        2.220446049250313e-16,
        -1.0,
        0.0,
        0.0,
        1.0,
        2.220446049250313e-16,
        0.0,
        0.0,
        0.0,
        0.0,
        1.0
      ],
      "name": "Sketchfab_model"
    },
    {
      "children": [
        2
      ],
      "matrix": [
        0.009999999776482582,
        0.0,
        0.0,
        0.0,
        0.0,
        0.0,
        0.009999999776482582,
        0.0,
        0.0,
        -0.009999999776482582,
        0.0,
        0.0,
        0.0,
        0.0,
        0.0,
        1.0
      ],
      "name": "112b63eb328e40f5a16b6d7d45bfeb9d.fbx"
    },
    {
      "children": [
        3
      ],
      "name": "RootNode"
    },
    {
      "children": [
        4,
        5
      ],
      "matrix": [
        100.0,
        0.0,
        0.0,
        0.0,
        0.0,
        -1.629206793918314e-05,
        -99.99999999999868,
        0.0,
        0.0,
        99.99999999999868,
        -1.629206793918314e-05,
        0.0,
        4.889443516731262e-07,
        0.0,
        2.2118911147117615e-07,
        1.0
      ],
      "name": "A_BottleChampagne"
    },
    {
      "mesh": 0,
      "name": "A_BottleChampagne_M_ChampagneBottleGlass_0"
    },
    {
      "mesh": 1,
      "name": "A_BottleChampagne_M_ChampagneSuit_0"
    }
  ],
  "samplers": [
    {
      "magFilter": 9729,
      "minFilter": 9987,
      "wrapS": 10497,
      "wrapT": 10497
    }
  ],
  "scene": 0,
  "scenes": [
    {
      "name": "Sketchfab_Scene",
      "nodes": [
        0
      ]
    }
  ],
  "textures": [
    {
      "sampler": 0,
      "source": 0
    },
    {
      "sampler": 0,
      "source": 1
    },
    {
      "sampler": 0,
      "source": 2
    },
    {
      "sampler": 0,
      "source": 3
    },
    {
      "sampler": 0,
      "source": 4
    },
    {
      "sampler": 0,
      "source": 5
    }
  ]
}
